<svg id="Capa_1" data-name="Capa 1" xmlns="http://www.w3.org/2000/svg" viewBox="0 0 569.59 320.46"><defs><style>.cls-1{fill:#34b5a9;}.cls-2{fill:#fec710;}.cls-3{fill:#1f3b79;}.cls-4{fill:#d60f28;}</style></defs><path class="cls-1" d="M385.81,72a.58.58,0,0,0-.53-.26h0a3.6,3.6,0,0,0-.79.21q-5.37,1.81-10.71,3.65l-.5.17c-.75.24-.79.27-1.08,1l-.22.52-.66,1.58-.36.88-.27.14a5.76,5.76,0,0,0-.66.36l-1,.67-.51.34a.52.52,0,0,1-.15.06v-.13c0-.21,0-.4,0-.58,0-.66,0-1.31,0-2,0-1.36-.05-2.77-.1-4.15,0-1.18-.13-2.38-.2-3.54,0-.59-.08-1.18-.11-1.77,0-.05,0-.1,0-.15a.59.59,0,0,1,0-.38h.19l1.21.08,1.88.13c.18,0,.37,0,.55,0H372a.67.67,0,0,0,.62-.29,4.57,4.57,0,0,1,.29-.36l7.36-8.83.14-.2a.45.45,0,0,0,0-.46.4.4,0,0,0-.32-.19h0a2.28,2.28,0,0,0-.66.14l-9.8,3.56-1.21.44-.27.1c-.67.23-.77.32-.87,1.37,0,.38-.09.76-.14,1.14,0,.2-.05.39-.08.59l-.31.18-.55.34-3.81,2.4-13.16,8.3-3.73,2.41-2.05,1.32-.11.09a.74.74,0,0,1-.31.17c0-.27,0-.53-.05-.79,0-.54-.07-1.09-.09-1.63q0-.48-.06-1c0-.5-.07-1-.07-1.54H343a11.89,11.89,0,0,0,2.49-.1,6.78,6.78,0,0,0,5.26-3.33,13,13,0,0,0,.76-1.48,18.44,18.44,0,0,0,1.29-6.15,1.88,1.88,0,0,0-.15-.83,9.19,9.19,0,0,0-2.18-3.2,14.68,14.68,0,0,0-2-1.62c.21,0,.43.07.64.13,1,.26,1.88.52,2.73.77a28,28,0,0,0,5.3,1.09,9.19,9.19,0,0,0,5.52-1.16,12.88,12.88,0,0,0,2.79-2.11c.65-.64,1.27-1.33,1.89-2a.69.69,0,0,0,.16-.47.5.5,0,0,0-.49-.41,2.78,2.78,0,0,0-.5,0h-3.64c-.21,0-.4,0-.61,0h-.06a4.25,4.25,0,0,1,0-.79v-.18a1.63,1.63,0,0,0,0-.31,1.13,1.13,0,0,1,0-.58l.16,0a2.32,2.32,0,0,0,.46.07,2,2,0,0,0,.77-.07,1.7,1.7,0,0,0,.43-.26l.11-.08.18.12.24.17.42.29c.44.31.89.62,1.35.91a3.44,3.44,0,0,0,1,.43A.87.87,0,0,0,368,55a.92.92,0,0,0,.36-.68c0-.11,0-.22,0-.35h0l.29.14.78.51c.35.24.71.47,1.07.7l.16.1a5.49,5.49,0,0,0,.83.45,1,1,0,0,0,.84,0,1,1,0,0,0,.47-.76,1.48,1.48,0,0,0,0-.21.91.91,0,0,1,0-.17l.31.28.4.35c.34.3.68.6,1.05.88a3.89,3.89,0,0,0,1,.54,1.39,1.39,0,0,0,1.57-.31,1.29,1.29,0,0,1,.17-.16l0,0,.28.13c.3.15.59.28.89.4s.58.17.87.24l.39.11a.61.61,0,0,0,.07.1,2.3,2.3,0,0,0,.34.43,7.43,7.43,0,0,0,2.67,1.62,3.3,3.3,0,0,0,1,.18h0a.81.81,0,0,0,.86-1,2,2,0,0,0-.23-.73l-.15-.27a9,9,0,0,0-.74-1.22A26.4,26.4,0,0,0,381.7,54a63.83,63.83,0,0,0-5.43-5.17c-1-.88-2.07-1.74-3.11-2.61s-1.93-1.6-2.88-2.41c-4.45-3.78-8.72-7.12-13.06-10.2-2.75-2-5.56-3.92-8.29-5.83-1.78-1.24-3.57-2.49-5.34-3.74a33.44,33.44,0,0,0-8.26-4.21,45.34,45.34,0,0,0-8.49-2,32,32,0,0,0-5.72-.35,15.35,15.35,0,0,0-2.79.36,8.58,8.58,0,0,0-3.62,1.67A5.81,5.81,0,0,0,312.43,24a11.55,11.55,0,0,0,.72,4.27l.27.74c.14.36.28.73.39,1.1a19,19,0,0,1,.48,1.87,3.81,3.81,0,0,1-.13,1.85,1.19,1.19,0,0,1-.76.94,2.49,2.49,0,0,1-2.6-.36,5.45,5.45,0,0,0-4.15-1.34c-.37,0-.74.07-1.12.09l-.9-.75-.53-.46c0-2.53-.11-2.85-1.59-4.42v-.05a2,2,0,0,0,0-.25,1,1,0,0,0-.39-.81,3,3,0,0,0-2.44-.59,3.69,3.69,0,0,0-.71.23,1.36,1.36,0,0,1-1.42-.08,1.26,1.26,0,0,0-1.58.11l-.1.08a.68.68,0,0,1-.18.14,2.46,2.46,0,0,1,.09-.29c0-.08.06-.16.08-.23a8.27,8.27,0,0,0,.42-3.06A4.26,4.26,0,0,0,294,19a8.78,8.78,0,0,0-2.1-.8,21.59,21.59,0,0,0-5.23-.58h-.34a33.85,33.85,0,0,0-8.11,1,73.56,73.56,0,0,0-7.46,2.4A17.26,17.26,0,0,0,265,24.42a21.35,21.35,0,0,1-3.36,2.44c-1,.62-2.1,1.27-3.46,2.05a75.38,75.38,0,0,0-14,10.29l-1.85,1.73L241,42.16l-.57.53c-.95.88-1.93,1.8-2.91,2.67-1.71,1.49-3.54,2.88-5.31,4.23l-1,.76c-1.21.93-2.13,1.66-2.95,2.36a15.72,15.72,0,0,0-4,5.35,2.9,2.9,0,0,0-.19.54.51.51,0,0,0,.43.66,1.79,1.79,0,0,0,.51,0,3.61,3.61,0,0,0,2.22-.79,14.49,14.49,0,0,1,3.31-2.06,2.11,2.11,0,0,0,.33-.18l.22-.13.08,0,.07,0v.07a3.54,3.54,0,0,0,.08.45.78.78,0,0,0,1,.62,1.66,1.66,0,0,0,.57-.21,5.19,5.19,0,0,0,.62-.42l1-.76,1.12-.9,0,0c0,.1,0,.19,0,.27a1,1,0,0,0,1.23,1.16,5.71,5.71,0,0,0,1.08-.35,14.09,14.09,0,0,0,2.57-1.45l.33-.2v.19a.76.76,0,0,0,.2.58.69.69,0,0,0,.57.06,4.9,4.9,0,0,0,2.67-1.32l.09-.09a1.39,1.39,0,0,1,.21-.21s.05,0,.06.06A1.14,1.14,0,0,0,246,54a2.86,2.86,0,0,0,.61-.29c.23-.15.45-.31.67-.47l.37-.26.16-.12a.87.87,0,0,1,.28-.19,8.76,8.76,0,0,1,.26,1.1l.06.32c0,.16.07.32.11.48a3.52,3.52,0,0,1,.16,1h-.11l-.4,0H245.3a3.85,3.85,0,0,0-.48,0,.61.61,0,0,0-.5.86,1.92,1.92,0,0,0,.27.44,13.75,13.75,0,0,0,3.53,3.29,7.11,7.11,0,0,0,3.07,1.18,8.56,8.56,0,0,0,2.74-.07c1.31-.25,2.58-.53,3.65-.78l.9-.21a31.55,31.55,0,0,1,3.27-.67,3.74,3.74,0,0,1,.94,0,1.53,1.53,0,0,1-.17.23c-.5.47-1,.94-1.51,1.38l-.68.59-.75.65a5,5,0,0,0-1.68,3.88,11.85,11.85,0,0,0,1.21,5.29,7.44,7.44,0,0,0,3.43,3.4,14,14,0,0,0,3.1,1.06c.47.11.95.2,1.44.3l.12,0c-.08.88-.15,1.74-.22,2.62l-.13,1.51-.12-.06-.54-.29c-4.78-2.64-9.59-5.57-14.29-8.7-1.7-1.12-3.4-2.29-5.05-3.43-1.1-.75-2.2-1.51-3.3-2.25a1.49,1.49,0,0,1-.62-.84c-.07-.22-.15-.45-.23-.67s-.17-.49-.25-.73a1.12,1.12,0,0,0-.86-.85l-.2-.07L239.51,62l-7.85-2.74-.14,0c-.11,0-.21-.07-.32-.09a1.3,1.3,0,0,0-.45,0,.63.63,0,0,0-.46.34.59.59,0,0,0,.05.56,3.8,3.8,0,0,0,.29.38l.06.07,2.14,2.63c1.5,1.85,3,3.7,4.5,5.56a1.36,1.36,0,0,0,1.29.57c.87-.09,1.77-.13,2.65-.17l.43,0H242c0,1-.07,2.06-.13,3s-.1,2-.14,3c0,.32,0,.63,0,1,0,.71-.05,1.44-.1,2.17,0,.41,0,.82-.05,1.24s0,1.11-.09,1.69a1.73,1.73,0,0,1-.24-.13l-.72-.46-1-.64a1,1,0,0,1-.53-.75c-.11-.52-.25-1-.38-1.55l-.13-.5a.85.85,0,0,0-.62-.66c-.53-.17-1-.37-1.55-.57l-1.48-.57-9.38-3.59-.1,0a4.06,4.06,0,0,0-.59-.19.47.47,0,0,0-.46.19.46.46,0,0,0-.07.51,3.12,3.12,0,0,0,.38.54l2.36,2.82c1.87,2.21,3.79,4.5,5.67,6.76a1.54,1.54,0,0,0,1.29.61H234c.89,0,1.79,0,2.67,0h.58l.45,0h.1v.34L237.51,86c-.11,1.35-.23,2.69-.33,4-.26,3.33-.39,6.75-.4,10.16,0,3.58.12,7.32.4,11.1.24,3.06.59,6.07,1,9A100.92,100.92,0,0,0,242,136a61.3,61.3,0,0,0,4.46,10.55,39.68,39.68,0,0,0,11.5,13.15,31.44,31.44,0,0,0,16.33,6.11,27.73,27.73,0,0,0,8.78-.78,34.18,34.18,0,0,0,8.23-3.31c.82-.45,3.47-2.22,3.87-2.45l.32-.18v0a2.9,2.9,0,0,1-.1.42c-.1.35-1.19,3.48-1.56,4.51a51.39,51.39,0,0,1-5.17,10.31c-.07.12-.15.23-.22.34l-.13.2a1.73,1.73,0,0,0-.14.31.5.5,0,0,0,.07.41.47.47,0,0,0,.35.2.66.66,0,0,0,.2,0h.13a23.74,23.74,0,0,1,3.92.12l.26,0a2.86,2.86,0,0,1,.83.18,4.9,4.9,0,0,1-.05.94,2.89,2.89,0,0,0,0,.29c-.05.45-.11.9-.16,1.35s-.15,1.17-.21,1.75a1.76,1.76,0,0,0,1.13,2,5,5,0,0,0,1.18.33,9.42,9.42,0,0,0,2.18.07h.63c0,.19,0,.37,0,.55s0,.37,0,.57a13.3,13.3,0,0,0,0,1.55,2.22,2.22,0,0,0,1.73,2.14l.11,0c.17.05.35.09.51.12a23.1,23.1,0,0,0,4,.37h.53a12.4,12.4,0,0,0,3.37-.41,6.93,6.93,0,0,0,1.29-.48,2.21,2.21,0,0,0,1.18-1.48,5.42,5.42,0,0,0,.14-1,6.51,6.51,0,0,0-.26-2.06,2.61,2.61,0,0,1,0-.31.25.25,0,0,0,0-.08l.07,0a.73.73,0,0,1,.25-.07,11.83,11.83,0,0,1,1.32.08c.26,0,.54.09.8.15s.55.11.83.14a1.47,1.47,0,0,0,1.82-1.2,3.72,3.72,0,0,0,.15-1,9.5,9.5,0,0,0-.59-3.51c-.08-.21-.15-.43-.22-.66a2.35,2.35,0,0,1,.78-.12h.07l4.36-.2a4.36,4.36,0,0,0,.66-.08.53.53,0,0,0,.44-.38.46.46,0,0,0-.19-.47,1.81,1.81,0,0,1-.44-.57l-.51-.88c-.43-.73-.87-1.49-1.29-2.24a53.2,53.2,0,0,1-4.87-12.06c0-.09,0-.18-.06-.3a.07.07,0,0,0,0,0l.35.18c2,1.08,3.79,2,5.6,2.79a38.61,38.61,0,0,0,11.83,3.3,28.56,28.56,0,0,0,7-.13,27,27,0,0,0,9.21-3.18,35.31,35.31,0,0,0,10-8.34,48.22,48.22,0,0,0,6.74-10.88,77,77,0,0,0,5.41-17.08c.7-3.49,1.25-7.16,1.62-10.91.32-3.14.52-6.26.6-9.29.14-5.3,0-10.92-.43-18.22-.07-1.33-.15-2.74-.22-4.14a1.71,1.71,0,0,1,0-.31v0h.53l1.21,0,2.28.09a.94.94,0,0,0,1-.49,2.3,2.3,0,0,1,.34-.43l.15-.15,7.66-8.67.05-.07a4.18,4.18,0,0,0,.45-.57A.53.53,0,0,0,385.81,72ZM368,66.46c.1-.89.19-1.74.33-2.61.72-.29,1.47-.56,2.2-.82l1.11-.4,1.05-.39,2.37-.86,1-.38c.67-.25,1.36-.51,2.08-.74q-2.15,2.61-4.32,5.22l-2,2.38-4-.25C367.92,67.22,368,66.84,368,66.46ZM354.38,89.53c.43-4.43.67-9.31.75-14.92,1.17-.85,10.16-6.46,11.56-7.23,0,0,0,.05,0,.06.41,4.82.61,9.72.61,14.55a.64.64,0,0,0,0,.07c-4.67,3.12-8.9,5.8-12.91,8.21h0v0C354.34,90,354.36,89.76,354.38,89.53ZM343,96.66v-.09c0-.33,0-.66.05-1,0-.56.06-1.11.06-1.66.1-4,.09-7.61,0-11.1,0-.14,0-.28,0-.41h0a20.53,20.53,0,0,1,2.84-1.81s0,0,0,.07A126.21,126.21,0,0,1,344.47,96l-1.49.81S342.94,96.74,343,96.66Zm-.14,2.24c0-.24,0-.47.07-.72l0-.13.5-.28,4.12-2.25a.58.58,0,0,1,0,.14,64.83,64.83,0,0,1-.12,9.89,71.9,71.9,0,0,1-3.67,16.8,96.25,96.25,0,0,1-6.67,15.49,74,74,0,0,1-9,12.79l-.21.21-.05,0a19.1,19.1,0,0,1-3.15-3.75l0,0c.09-.12.19-.24.29-.35a65.54,65.54,0,0,0,4.49-5.63,59.69,59.69,0,0,0,4.83-8.21c.73-1.47,1.4-3,2-4.49s1.05-3.33,1.8-4.83A89.76,89.76,0,0,0,341.7,109C342.25,105.45,342.61,102.14,342.81,98.9ZM315.1,150.73l-.46-.22-.33-.17c-.31-.16-.33-.22-.2-.56.06-.14.12-.28.19-.42s.08-.19.13-.28a1.81,1.81,0,0,0-.21-2.19s0,0,0-.06l0-.11a1.31,1.31,0,0,0,.15-1,2.42,2.42,0,0,0-.77-1.26,2.07,2.07,0,0,0-2.48,0,4.88,4.88,0,0,0-.45.37,1.26,1.26,0,0,1-.17.13,1.42,1.42,0,0,1-.22-.18,2.2,2.2,0,0,0-1.43-.64,9.32,9.32,0,0,0-1.4,0l-1.6,0c-.21,0-.41,0-.62,0a8.8,8.8,0,0,0-1.13.26,2.25,2.25,0,0,1-1.23-.09.92.92,0,0,0-.26-.07.58.58,0,0,0-.68.34l-.06.1a4.14,4.14,0,0,1-.41.67.63.63,0,0,1-.79.23.92.92,0,0,0-.26-.07l-.14,0a2.13,2.13,0,0,0-2.22.46,4.67,4.67,0,0,0-.51.49,1.26,1.26,0,0,0-.44.95,1.13,1.13,0,0,1,0,.18l0,.18a1,1,0,0,1-.84.88l-.18,0a3.82,3.82,0,0,0-2.42,1.12,4.46,4.46,0,0,0-1.45,2.11l-.07.19c0,.1-.07.2-.1.31a1.4,1.4,0,0,1-.22-.16,72.79,72.79,0,0,1-10.23-11.15,56.8,56.8,0,0,1-5.73-9.76l-.07-.14a.66.66,0,0,1-.12-.29c1-.09,5.32-.08,6.26,0l.06.29a4.34,4.34,0,0,0,2,3.26l.25.17c.22.15.45.3.69.44a1,1,0,0,1,.52.68,4.29,4.29,0,0,0,.19.5l.09.24a6.85,6.85,0,0,0,2.73,3.29,10.13,10.13,0,0,0,3.07,1.36c.9.24,1.79.44,2.64.6,1.88.36,3.69,1,5.55,1.4a29.33,29.33,0,0,0,5.6.66,18.28,18.28,0,0,0,5.47-.5c.25-.07.49-.11.74-.17s.4-.16.61-.23a1.86,1.86,0,0,1,2.37,1.1c0,.12.09.24.14.36l.07.17a1.71,1.71,0,0,0,1.08,1,1.65,1.65,0,0,1,1,.81,2.28,2.28,0,0,0,.29.42.88.88,0,0,0,1.21.17,1.84,1.84,0,0,0,.86-1.67,1.15,1.15,0,0,0-.42-.86l-.5-.41-.07,0,.08-.08.16-.17.43-.4a10.31,10.31,0,0,0,.88-.87,2.66,2.66,0,0,1,2.45-1l.47.07.3.05a.68.68,0,0,0,.72-.29.56.56,0,0,0-.13-.75l-.06-.07a1,1,0,0,1,1-.12,5.43,5.43,0,0,1,.89.46,5.25,5.25,0,0,0,2.32.95c-1.2,2.28-8.87,10.27-11.7,12.21,0-.11.05-.22.08-.33s.12-.44.16-.66A1.87,1.87,0,0,0,315.1,150.73ZM286.47,76.17c0,.7.13.83.8.9l1,.1,1.31.14a.38.38,0,0,1,.17.07h0c-.4.05-.79.09-1.17.11a23.73,23.73,0,0,1-9.63-1.61,30.48,30.48,0,0,1-2.95-1.25,39.54,39.54,0,0,1,6.31-1.51,18.32,18.32,0,0,1,4.81-.16.67.67,0,0,1-.09.26s-.05.08-.07.13A7.73,7.73,0,0,0,286.47,76.17Zm-5.74,1.41a24.16,24.16,0,0,0,8,.92,30.22,30.22,0,0,0,10-2.33c.71-.28,1.39-.58,2.11-.9l.88-.39c1.57,1.5,2,1.83,2.8,2.14l.07,0,.07,0a.46.46,0,0,0,.18-.59c-.17-.66-.35-1.31-.53-2-.05-.15-.1-.3-.16-.45l0-.12a1.52,1.52,0,0,1,.52-.27,1.84,1.84,0,0,1,.06.4,2.23,2.23,0,0,0,.08.45c.05.17.09.33.13.5s.08.33.13.49a7.35,7.35,0,0,0,.37,1l.09.24a1.32,1.32,0,0,0,.45.69l.12.08.09-.11c.43-.47.51-.75,1.12-3.52h0a.53.53,0,0,1,.26.12.83.83,0,0,0,.16.09,46.36,46.36,0,0,0,6.49,2.77,27.38,27.38,0,0,0,8.73,1.49h0a23.54,23.54,0,0,0,8-1.48,33.52,33.52,0,0,0,4.74-2.06,1,1,0,0,1,.9-.06,31.57,31.57,0,0,0,4,1.2l.62.14.33.07a149.35,149.35,0,0,1,.53,15.44,95.82,95.82,0,0,1-.79,12l-.15,0-72.53-.39-.09,0,0,0a19.29,19.29,0,0,1-.25-2.16l0-.5a131.58,131.58,0,0,1,.07-24.24l.07,0,.49-.11,1.58-.31c1.12-.22,2.26-.44,3.4-.68a1.37,1.37,0,0,1,1,.11A34,34,0,0,0,280.73,77.58Zm9.8-1.8c.32.22.36.39.15,1a.27.27,0,0,1-.1-.14l0-.08-.05-.11A.75.75,0,0,1,290.53,75.78Zm1.23,1.33a1.63,1.63,0,0,1,.24-.45l.1-.15.15-.2.13-.21h0l.13.21.35.59-.27.08a2.61,2.61,0,0,1-.27.06l-.56.07Zm1.51-1.91.19,0a.32.32,0,0,1,.11.12.89.89,0,0,1,.07.76,1.51,1.51,0,0,1-.24-.34.85.85,0,0,1-.09-.22,1.85,1.85,0,0,1,0-.23V75.2Zm2-.78v.07a.53.53,0,0,0,0,.12,1.6,1.6,0,0,1,0,.31,3.85,3.85,0,0,0,0,.48.75.75,0,0,0,.09.31.79.79,0,0,0,.18.22.64.64,0,0,0,.24.1l.13,0h.14l-.72.22-.64.15h0a1.8,1.8,0,0,1,0-.22l0-.25a3.93,3.93,0,0,1,.06-.48,2.75,2.75,0,0,1,.21-.65,2.13,2.13,0,0,1,.25-.39Zm1.07-.08s0-.08,0-.13h0l.17,0,.1,0h0v.11a.48.48,0,0,1,0,.18.38.38,0,0,1-.09.15.56.56,0,0,1-.22.17l0-.13A1.64,1.64,0,0,1,296.38,74.34Zm.71,1.35a1.35,1.35,0,0,0,.39-.4,1.56,1.56,0,0,0,.24-.54l0-.1,0-.1h.06c.06,0,.09,0,.1,0s.06.07.07.12a2.17,2.17,0,0,1,.07.24,2,2,0,0,1,.05.24v.06l-.33.17-.42.18-.32.13Zm-5.47-14.5a1.46,1.46,0,0,1-.15.75q-.44.89-.87,1.8l-.25.53-.15,0-.48-.09a21,21,0,0,0-7.38-.32,64.45,64.45,0,0,0-6.73,1.26l-1.29.29-1.31.28c-1.22.27-2.47.55-3.72.8-.76.15-1.54.23-2.29.32l-.36,0a3.55,3.55,0,0,1-.92,0,.38.38,0,0,1,.07-.11l0,0a13.46,13.46,0,0,0,1.57-2.58,6.46,6.46,0,0,0,.62-2.31,8.12,8.12,0,0,0-3.12-7.16,7.14,7.14,0,0,0-4.18-1.56,16.47,16.47,0,0,0-4.37.39,11.48,11.48,0,0,1-2.31.27h-.17a5.18,5.18,0,0,1-2.34-.68s-.07-.06-.1-.1a1.29,1.29,0,0,1,.46-.38A27.31,27.31,0,0,0,256,50c.07.09.13.19.21.28a1.08,1.08,0,0,0,1.32.36,5.81,5.81,0,0,0,.86-.44c.72-.42,1.43-.86,2.13-1.29l.71-.43.32-.17.12-.07a1.09,1.09,0,0,0,.89.6,2.11,2.11,0,0,0,1.29-.4c.62-.49,1.27-.93,2-1.46a1.24,1.24,0,0,1,.37-.14l.09,0,.31,0h.14a6.9,6.9,0,0,0,3.88-1.7.7.7,0,0,1,.15-.12,1.83,1.83,0,0,0,1.17.6c0,.14,0,.29,0,.43v.34a2.28,2.28,0,0,0,.85,1.84,2.05,2.05,0,0,0,1.6.46,1.68,1.68,0,0,0,.64-.25l.08,0,.08,0,.18.11.22.14.11.07.06,0a1.72,1.72,0,0,0,2-.62c.53-.57.83-1.38,1.76-1.16a7.22,7.22,0,0,0,2.91.08l.43-.07H283l.26-.06h.07l.1.25,0,.05a7.89,7.89,0,0,0,.93,1.42c.48.81.65,1.79,1.86,1.54l.43-.11.19-.05s.63,1.1.72,1.21a2.31,2.31,0,0,0,1.28.78l.25.07.07.18c.28.72.86,2.27,1.89,1.57a2.08,2.08,0,0,0,.55-.52l.12-.16a4,4,0,0,0-.37,1.27,11,11,0,0,0-.21,1.4,6.38,6.38,0,0,0,.21,3.13c.15.32.53.77.46,1.13,0,.18-.15.36-.18.55A2.59,2.59,0,0,0,291.62,61.19Zm0-10.5a5.07,5.07,0,0,1-.91,2,.23.23,0,0,1-.09.07,2,2,0,0,1-.29-.58l-.12-.32a1.51,1.51,0,0,1-.07-1,2.87,2.87,0,0,0,0-1.3,4.58,4.58,0,0,1,.25-2.37,6.43,6.43,0,0,1,1.13-2.06h0a.64.64,0,0,1,.06.16A15.12,15.12,0,0,1,291.62,50.69Zm-1.19-6.57-.07.11a1.23,1.23,0,0,1-.18.23,7,7,0,0,1,1.66-7.19v.08l0,.25c0,.3.05.6.06.91A9,9,0,0,1,290.43,44.12Zm1.08-8h0a4.36,4.36,0,0,1-1.12,1,5.5,5.5,0,0,1-.48.28,7.3,7.3,0,0,1,0-.92,6.6,6.6,0,0,1,.14-1.28,6,6,0,0,1,.19-.72,6.68,6.68,0,0,1,.33-.85,1.41,1.41,0,0,1,.18-.29,4.19,4.19,0,0,1,1.79-1.25.69.69,0,0,1,.26,0,.22.22,0,0,1,.12,0q.14.06.24.36a1,1,0,0,1,0,.67A9.1,9.1,0,0,1,291.51,36.1ZM302,40.8a1.22,1.22,0,0,1,.1.23,6.91,6.91,0,0,1-2.83-2,9.5,9.5,0,0,1-1.57-3.17l.41.36c.22.2.45.41.69.59A11.32,11.32,0,0,1,302,40.8Zm-2.57-6.57.28,0,.51-.07a3.13,3.13,0,0,1,1.2,1,3.52,3.52,0,0,1-1.64.22c-.08-.24-.15-.48-.22-.72S299.48,34.37,299.43,34.23Zm6.88,33.9a10.27,10.27,0,0,0-1.67,4.29l-.34.16a2.66,2.66,0,0,1-.55-.43l-.06-.06,0,0a1,1,0,0,1,.16-.19,4.43,4.43,0,0,0,1.26-2l0,0a.76.76,0,0,1,.32-.5.94.94,0,0,0,.35-.55c.22-.64.43-1.3.64-2a5.43,5.43,0,0,0,0,.57A1,1,0,0,1,306.31,68.13Zm.23,1A15.21,15.21,0,0,1,306,76s0,0,0,0A6.77,6.77,0,0,1,306.54,69.14Zm-7.15.27.24.27.79.86a6.51,6.51,0,0,0,.35,2.66,5.18,5.18,0,0,0,.34.76v0l-.14.06-.14.06,0-.1a.16.16,0,0,1,0-.09c-.2-.88-.41-1.68-.63-2.43s-.46-1.43-.72-2.09Zm-6.65-18.23a2,2,0,0,0-.53.74l0-.24q.17-1.63.3-3.27a5.62,5.62,0,0,0,0-.59,1.08,1.08,0,0,1,.13.78A6.45,6.45,0,0,0,292.74,51.18Zm0-8.64c1.38,1.13,2.39,3.79,1.78,6.86A7,7,0,0,1,292.74,42.54ZM292.61,37h0a2.36,2.36,0,0,1,.19-.7l0-.07a2.05,2.05,0,0,1,.26-.43c.17-.23.35-.45.55-.71h0c.06.25.13.5.2.74a21.15,21.15,0,0,1,.62,2.73,6.9,6.9,0,0,1-.27,3.45.53.53,0,0,1-.13-.13,9.5,9.5,0,0,1-1.25-2.54A6.57,6.57,0,0,1,292.61,37Zm1.71-2.18a8.55,8.55,0,0,1,2.43,2.35,5.4,5.4,0,0,1,.78,4A13,13,0,0,1,294.32,34.81Zm3.6,16.46a2.27,2.27,0,0,0,.77-.57.87.87,0,0,1,.25.32l.21.38s0,.07,0,.1-.09.06-.15,0-.26-.2-.37-.35c-.79.77-1.18.81-1.74.12A1.74,1.74,0,0,0,297.92,51.27Zm3.33-8.52v0h0a9.37,9.37,0,0,1-.13,1.42,7.62,7.62,0,0,1-2.07-2.14,3.39,3.39,0,0,1-.54-2.15c0-.16.08-.25.14-.27h0a.86.86,0,0,1,.42.2l.06,0h0l0,0h0a6.71,6.71,0,0,0,1.7,1.26,2.18,2.18,0,0,1,.25.59,3.14,3.14,0,0,1,.1.81h0v0A.41.41,0,0,0,301.25,42.75ZM303,57c.07-.2.12-.41.21-.61l0,0h.13a.11.11,0,0,1,.06.07,1.26,1.26,0,0,1,0,.58,1.42,1.42,0,0,1-1.21,1.15,1.39,1.39,0,0,1-.64-.09,1.26,1.26,0,0,1-.52-.39c-.12-.14-.31-.35-.3-.55,0,0,0,0,0,0s.16,0,.2.06a1.84,1.84,0,0,0,.22.17c.41.3,1,.63,1.45.24A1.3,1.3,0,0,0,303,57Zm-.27-9.57a4.65,4.65,0,0,1,.43.25,2.12,2.12,0,0,1,.67.82,9,9,0,0,1,.93,4.77c0,.08,0,.17-.07.3a2.14,2.14,0,0,1-1.18-.85,4.26,4.26,0,0,1-.67-1.65A12.89,12.89,0,0,1,302.76,47.42Zm-2.6,2.18c-.55,0-.67-.12-.9-.87a3.3,3.3,0,0,1,.29.22.88.88,0,0,0,1.1.2c.15-.07.32-.1.41.09s-.08.31-.34.33A5.12,5.12,0,0,1,300.16,49.6Zm.12,2.93a.63.63,0,0,1-.29.08.89.89,0,0,1-.75-.46l1,.13a.16.16,0,0,1,.07.12A.14.14,0,0,1,300.28,52.53Zm-3.2,1s0,0,0-.05a.13.13,0,0,1,.11.08.36.36,0,0,1,0,.15.59.59,0,0,0,.06.14.47.47,0,0,0,.26.24.36.36,0,0,0,.23,0l.07,0a.55.55,0,0,0,.2-.17.31.31,0,0,1,.07-.09.21.21,0,0,1,.1-.06c.11,0,.16.19.19.26s.07.17.1.25.12.43.32.45a.19.19,0,0,0,.14,0,.43.43,0,0,0,.09-.13c.12-.16.21-.33.32-.49s.14-.19.25-.2.11.1.11.16c0,.24-.56.92-.74,1.11a.38.38,0,0,1-.57,0,2.16,2.16,0,0,1-.35-.63l0,0H298l-.05,0a.62.62,0,0,1-.46,0l-.16-.08a.57.57,0,0,1-.11-.11A.67.67,0,0,1,297.08,53.49Zm1,3.09s.06-.21.13-.22h0c.14.06.14.2.17.32s.07.29.12.43.14.42.41.44.36-.1.49-.43a1.33,1.33,0,0,1,.11-.3.29.29,0,0,1,.21-.06.24.24,0,0,1,.14.16A1.51,1.51,0,0,1,299,58a.65.65,0,0,1-.61-.13A1.14,1.14,0,0,1,298,57,2.6,2.6,0,0,1,298,56.58Zm1.71,2c0-.07.12-.16.17-.15.36,0,.31.59.35.86a1.08,1.08,0,0,0,.31.66c.21.17.45,0,.6-.14s.18-.32.35-.4a.2.2,0,0,1,.2,0s0,0,0,.06c.16.3.27.62.45.91s.49.35.8.08c.07,0,.13-.13.2-.17a.5.5,0,0,1,.21,0c.17,0,.2.2.15.33A1,1,0,0,1,302,61a4.92,4.92,0,0,1-.47-.54c-.21,0-.41.12-.61.16a.78.78,0,0,1-.79-.31A2.06,2.06,0,0,1,299.75,58.57Zm3.43,7.56a1.21,1.21,0,0,1-1.88.85c-.4-.29-.52-.55-.53-1.29.3.32.48.54.69.74a.61.61,0,0,0,1-.07c.1-.12.16-.28.26-.4a.41.41,0,0,1,.29-.07A.3.3,0,0,1,303.18,66.13Zm-2.07,5h0s0,0,0,0A8.48,8.48,0,0,1,304,76a7.39,7.39,0,0,1-2-1.89A4.8,4.8,0,0,1,301.11,71.1Zm5.22-13.23a6,6,0,0,1-.27,1.18,9,9,0,0,1-.68-6.08,6.61,6.61,0,0,1,1,3.91C306.38,57.19,306.35,57.52,306.33,57.87ZM306,49l-.46-.31c-.39-.26-.78-.53-1.14-.82a6.07,6.07,0,0,1-1.88-2.65h0a9.69,9.69,0,0,1-.53-2l.21.15.33.31c.53.49,1.08,1,1.59,1.53a11.67,11.67,0,0,1,1.23,1.59,4.1,4.1,0,0,1,.77,2.21S306.08,49,306,49ZM299,35.26l-.42-.06a11.42,11.42,0,0,1-1.62-.35,4.45,4.45,0,0,1-3-2.68,1.06,1.06,0,0,1-.06-.19,7.58,7.58,0,0,1,4.62,2.14,1.63,1.63,0,0,1,.51,1.12Zm-4.88-4.39H294a1.11,1.11,0,0,1-.26,0,3.58,3.58,0,0,0-3.11,1l0,0a1.59,1.59,0,0,1,.19-.81,3.46,3.46,0,0,1,.35-.57,3.69,3.69,0,0,1,1.1-.91,1.65,1.65,0,0,1,.8-.19,3.19,3.19,0,0,1,.7.09.6.6,0,0,1,.46.54A1.27,1.27,0,0,1,294.07,30.87Zm-2,24.69a7,7,0,0,1,.9-3.1l.17.46c.14.36.28.72.41,1.12a1.26,1.26,0,0,1,.12.51,8.76,8.76,0,0,1-.33,2.21,17.76,17.76,0,0,1-1.15,2.09A8.66,8.66,0,0,1,292,55.56Zm1.3-6.44.18.22a12.44,12.44,0,0,1,1.43,2,8.82,8.82,0,0,1,.6,1.32,7,7,0,0,1,.36,1.41c.08.57.11,1.16.15,1.74l0,.42a.49.49,0,0,1,0,.12C294.5,55.31,293,51.3,293.34,49.12Zm.71,11a.38.38,0,0,1,.09.09,15.16,15.16,0,0,0,1.1,1.91,4.28,4.28,0,0,1,.52,1.71,11.68,11.68,0,0,1,0,3.07v0A7.88,7.88,0,0,1,294.05,60.13Zm1.62,1.28h0a6,6,0,0,0-.56-1,3.06,3.06,0,0,1-.55-1.52,8.86,8.86,0,0,1,0-1.8,7.72,7.72,0,0,1,3.29,5.81h0a4.52,4.52,0,0,1-1.39-.69A2.35,2.35,0,0,1,295.67,61.41Zm.89,3.94c.12.24.24.49.37.73a.45.45,0,0,1,0,.45h0l-.19,0a.75.75,0,0,1-.2-.08Zm.18-1.46a9.91,9.91,0,0,1,2.44,1.93,5.88,5.88,0,0,1,1.49,3.77C299.34,68.81,297.36,65.94,296.74,63.89Zm.81,3.27a3.14,3.14,0,0,1,.34.55l0,.05a26.54,26.54,0,0,1,2,5.48l0,.21a3.33,3.33,0,0,1-.68-.67l-.13-.15a6.18,6.18,0,0,1-1.53-2.77A6.31,6.31,0,0,1,297.55,67.16Zm10.39,2.52a14.11,14.11,0,0,1-.66-1.42,1.77,1.77,0,0,1,0-.88,3.31,3.31,0,0,1,.25-.65,6.33,6.33,0,0,1,1.3,2.89,3.69,3.69,0,0,1-.29,1.09A7.64,7.64,0,0,1,307.94,69.68Zm.08,1.6c-.09.1-.18.18-.26.26l-.25.25a1.42,1.42,0,0,1-.08-.18.88.88,0,0,1,0-.16c0-.12,0-.24,0-.36,0-.29,0-.59,0-.83.16.25.31.5.47.77Zm.39-8.33a1.18,1.18,0,0,0,0,.2,1,1,0,0,1-.09.38,10.37,10.37,0,0,1-1.21-6.25l.06.07A6.44,6.44,0,0,1,308.41,63Zm13.35,10.19a3.1,3.1,0,0,0-.07-.38v-.07l.27,0a27.93,27.93,0,0,1,5.5,0,35.66,35.66,0,0,1,6.81,1.29l.49.16h0l-.22.12a31.76,31.76,0,0,1-7.25,2.58,22,22,0,0,1-7,.3,29.41,29.41,0,0,1-7.79-2l-.34-.16h0A55.19,55.19,0,0,1,319.2,73l.12.16.25.31a1.84,1.84,0,0,0,1,.67h0a1,1,0,0,0,.9-.18A1,1,0,0,0,321.76,73.14ZM268.62,104.3a1,1,0,0,1,.52,0h2.21c2.67,0,5.33,0,8,0l60.86.31a1.43,1.43,0,0,0,.29,0,2.16,2.16,0,0,1,.68,0,.72.72,0,0,1,0,.48.78.78,0,0,0,0,.14c-.16,1.26-.32,2.39-.5,3.55a88.91,88.91,0,0,1-3.28,13.73c-.81,2.44-1.62,4.59-2.48,6.57l-.25.55-.05,0-58.88.08h-.45l-.09,0h0l-.09-.21c-.08-.17-.17-.35-.24-.53a79.82,79.82,0,0,1-4-12.07,109.82,109.82,0,0,1-2.18-11.81c0-.27-.05-.54-.07-.79Zm48.67,40.31a3.24,3.24,0,0,0,.31.24l.2.15c.39.32.4.41.16.84l-.08.1-.07,0c-.05,0-.09-.05-.15-.17a.41.41,0,0,0-.05-.09,2.21,2.21,0,0,0-1.28-1.05,1,1,0,0,1-.68-.71c0-.15-.11-.3-.17-.45a3.08,3.08,0,0,0-3.82-1.61,11,11,0,0,0-1.44.66,8.77,8.77,0,0,1-4.17.36c-1.49-.08-3-.18-4.46-.4a51.72,51.72,0,0,1-5.6-1.45c-.71-.19-1.45-.34-2.17-.48l-1.08-.22a12.33,12.33,0,0,1-2.75-.91c-.48-.23-.91-.47-1.3-.7a4.92,4.92,0,0,1-2.26-3.3c0-.1-.05-.2-.07-.28a1.05,1.05,0,0,0-.59-.85,17.09,17.09,0,0,1-1.56-1,3.1,3.1,0,0,1-1.19-2.42l.09,0,50.85-.06.16,0a.8.8,0,0,1,0,.18,61.8,61.8,0,0,1-5.5,9.61l-.1.1a2.76,2.76,0,0,1-1.93-.32l-.34-.2c-.36-.22-.73-.44-1.11-.64a2.24,2.24,0,0,0-2.13,0,1.34,1.34,0,0,0-.81.85l-.66.06-.34,0a2.83,2.83,0,0,0-1.83.89l-.42.43a15.32,15.32,0,0,1-1.43,1.36,1.1,1.1,0,0,0-.31.33A.83.83,0,0,0,317.29,144.61Zm34.09-76.73,0,.12a13.21,13.21,0,0,1-.95,3.1,11.5,11.5,0,0,1-.74,1.35A5.49,5.49,0,0,1,346,75a11.92,11.92,0,0,1-3.73.12A22.92,22.92,0,0,1,337,73.71l-.16-.06a39.88,39.88,0,0,0-7.71-1.89,32.29,32.29,0,0,0-4.37-.29,31.28,31.28,0,0,0-6.34.64,56,56,0,0,0-7.19,2A1.37,1.37,0,0,1,310,74a17.23,17.23,0,0,1-1.88-1c-.07,0-.14-.12-.12-.21a.23.23,0,0,1,.07-.1,33.46,33.46,0,0,1,3.82-3.31,18.2,18.2,0,0,1,7.57-3.24,36.38,36.38,0,0,1,8.88-.53,91.59,91.59,0,0,1,9.35,1.1l1.17.19c2.08.34,4.23.68,6.32,1.09a8.41,8.41,0,0,0,3.2,0,5.83,5.83,0,0,0,2.82-1.37l.38-.32A14.4,14.4,0,0,1,351.38,67.88ZM313.54,52.2a5.3,5.3,0,0,0-.09-.63l.24-.12a6.54,6.54,0,0,0,.84-.49c.07-.05.41-.36.52-.29s0,0,0,0a2.51,2.51,0,0,0,.33,1.09,1.11,1.11,0,0,0,.45.41,1,1,0,0,0,.49.05,2.74,2.74,0,0,0,1.35-.62,4.62,4.62,0,0,0,1-1l.21-.3.06-.09a4.2,4.2,0,0,0,.22.93.59.59,0,0,0,.4.37.88.88,0,0,0,.48-.09,3.6,3.6,0,0,1,.49-.23c.18,0,.32,0,.48-.14a1.26,1.26,0,0,0,.34-.42,4.76,4.76,0,0,0,.58-1.28c0-.06.3.42.32.45a.79.79,0,0,0,.39.45.58.58,0,0,0,.54-.07,1.64,1.64,0,0,0,.41-.38l1.27-1.46a3.07,3.07,0,0,0,.52-.77c.11-.29,0-.6.16-.87a2.53,2.53,0,0,0,.86-.21c.72.14,1.64.6,2.12.38a1.25,1.25,0,0,0,.12-.08,2.86,2.86,0,0,0,.66,0,1.73,1.73,0,0,1,1.22.24c0,.09.07.17.1.26a5.67,5.67,0,0,0,.28.61,1.61,1.61,0,0,0,1.79.79,1.59,1.59,0,0,0,.86-.55l.52.25a1.3,1.3,0,0,0,1.82-.59,3.43,3.43,0,0,0,.45-1.72c0-.2,0-.4,0-.6v-.13l.58-.24.4-.18a.41.41,0,0,0,.11.07l.25.16a6.65,6.65,0,0,0,3.92,1.32,1,1,0,0,1,.74.28,8.1,8.1,0,0,0,1.9,1.36,7.37,7.37,0,0,0,1.42.55,1.07,1.07,0,0,0,1.47-.63,4.61,4.61,0,0,1,.43.29,18.92,18.92,0,0,0,4,2.17l.15.06c.3.11.53.18.71.09s.24-.24.32-.5a.41.41,0,0,0,.11.07l.35.24a21.38,21.38,0,0,0,3.14,1.87,9.86,9.86,0,0,0,1.19.49,3,3,0,0,0,.82.15h.06a.77.77,0,0,0,.84-.78,1.93,1.93,0,0,0,0-.25,4.37,4.37,0,0,1,.78.39l.34.2s0,.09-.09.16l-.06.06a8.49,8.49,0,0,1-1.48,1.35,3.19,3.19,0,0,1-2.66.47c-.59-.16-1.22-.33-1.85-.47a16.72,16.72,0,0,0-3.79-.54h0a6.7,6.7,0,0,0-4.64,1.76,10.87,10.87,0,0,0-3.33,5.85,4.73,4.73,0,0,0,.35,3,9.21,9.21,0,0,0,1.41,2.22,4,4,0,0,1,.26.32c-.13,0-.24,0-.39,0l-.94-.17c-.7-.12-1.4-.25-2.11-.36-3.39-.56-6.72-1.1-10.13-1.44a47.62,47.62,0,0,0-4.83-.24c-.69,0-1.38,0-2.09,0h-.19a1.4,1.4,0,0,1-.54,0v-.06a2.58,2.58,0,0,1,0-.29c0-.08,0-.16.08-.25a1.89,1.89,0,0,0,.1-.36.7.7,0,0,0-.17-.65.72.72,0,0,0-.66-.19,2,2,0,0,0-1.39.92,4.68,4.68,0,0,0-.3.64l-.12.3a1.54,1.54,0,0,0-.08.19v0a.47.47,0,0,1-.7-.2,7,7,0,0,0-.68-.89.8.8,0,0,0-.63-.31.76.76,0,0,0-.6.42,2.26,2.26,0,0,0-.32,1.44v.11a1.11,1.11,0,0,1-.26.07l0-.06c-.06-.12-.12-.24-.19-.36l-.09-.16a3,3,0,0,0-.36-.52.76.76,0,0,0-.58-.27h0a.78.78,0,0,0-.59.34,3,3,0,0,0-.35.55,1.2,1.2,0,0,0-1.53-.51,2.74,2.74,0,0,1-.2-1.39c0-.41.08-.85.16-1.31a6.76,6.76,0,0,0-.2-3.08,3.73,3.73,0,0,0-.86-1.53c-.17-.18-.32-.36-.48-.56l-.21-.25a3.39,3.39,0,0,0,.59-1.84.51.51,0,0,1,.12-.23l.06-.09a1.88,1.88,0,0,1,.18-.24c.09-.13.19-.26.27-.4A2,2,0,0,0,313.54,52.2Zm5.8-3.78c-.38,0-.66,0-.83.38-.08.16-.15.33-.23.49s-.15.34-.23.5A2.29,2.29,0,0,1,316.33,51h-.14l-.11-.33-.24-.81c0-.13-.08-.27-.11-.4l-.12-.42a.87.87,0,0,0-.07-.17,2.83,2.83,0,0,0,.63-.5c.12.31.59.35.87.16a1.68,1.68,0,0,0,.54-.83,1,1,0,0,0,1.74-.39,1.09,1.09,0,0,0,1.38,0c.12-.11.23-.27.4-.3s.41.14.6.25a1.09,1.09,0,0,0,1.57-.79,1,1,0,0,0,.76.19l0,.32a3.33,3.33,0,0,1-.7.94,7.65,7.65,0,0,0-.55.6c0,.06-.09.11-.13.16a.54.54,0,0,1-.06-.18,1.87,1.87,0,0,0-.07-.22l0-.08a1,1,0,0,0-.24-.37.89.89,0,0,0-.55-.15.49.49,0,0,0-.42.5c0,.12,0,.24,0,.36v.34a0,0,0,0,0,0,0,1.57,1.57,0,0,1-.35.89h0a1.79,1.79,0,0,1-.24.23,2.3,2.3,0,0,1-.44.23l-.15,0v0h0v0l-.15-1.2,0-.09a.52.52,0,0,0-.45-.47A.53.53,0,0,0,319.34,48.42Zm0,.17Zm2.92,15.54a3.07,3.07,0,0,1-.06.51l-.22,0a1.69,1.69,0,0,1,.11-.34.51.51,0,0,1,.17-.19Zm-5.72,1.62a.75.75,0,0,1-.17.1.4.4,0,0,1-.15,0,1.38,1.38,0,0,1,.15-.51A.61.61,0,0,1,316.55,65.75Zm-3.82-4c0,.25-.17.34-.4.37a.42.42,0,0,1,0-.51.34.34,0,0,1,.27-.09A.31.31,0,0,1,312.73,61.71Zm-.64,2.15a.74.74,0,0,1,.36.3.69.69,0,0,1,.1.17c.17.34.34.69.5,1l.24.49.08.22,0,0a.57.57,0,0,0,.38.22.63.63,0,0,0,.32-.12.37.37,0,0,0,.13-.15,1.19,1.19,0,0,0,.1-.32.72.72,0,0,1,.05-.21s.06-.1.06-.11,0,0,0,.06,0,0,0,.06a1.63,1.63,0,0,1,0,.54,4.71,4.71,0,0,1-.15.56l-.29.16-.12.05-.13,0-.13,0-.14-.06a6.24,6.24,0,0,1-1.71-1.27,1.36,1.36,0,0,1-.37-.78,2.67,2.67,0,0,1,0-.4,1.8,1.8,0,0,1,0-.22.36.36,0,0,1,.07-.17.25.25,0,0,1,.12-.11.35.35,0,0,1,.2,0A.46.46,0,0,1,312.09,63.86Zm-.74-4a.83.83,0,0,1-.73.26.6.6,0,0,1-.48-.45c.93-.24,1-.37,1.1-1.34,0-.07,0-.15,0-.23s.16-.32.3-.3a.33.33,0,0,1,.32.3A2,2,0,0,1,311.35,59.85ZM311,66.26l1.68,1.31-.34.23c-.44.3-.87.6-1.28.91s-.81.62-1.21.94l-.4.31v-.11l0-.48c0-.22,0-.46,0-.69a6.6,6.6,0,0,0-.36-2.5c0-.07,0-.14-.06-.23v0A4.22,4.22,0,0,0,311,66.26Zm40.61-1.68a5.4,5.4,0,0,1-2.35,2,6.63,6.63,0,0,1-2.64.45.53.53,0,0,1-.4-.12,9.89,9.89,0,0,1-2.26-2.9,1.87,1.87,0,0,1,.18-2.5,11.78,11.78,0,0,1,1.05-1.24,2.9,2.9,0,0,1,1.27-.76A10.72,10.72,0,0,1,351.59,64.58Zm11.8-8.19,1.91,0h.07a1.37,1.37,0,0,1,.35,0l-.06.08a14.2,14.2,0,0,1-3.65,3,7.89,7.89,0,0,1-3.87,1h-.06a18.78,18.78,0,0,1-4.74-.73l-1.74-.5c-.48-.15-1-.29-1.45-.42a12.62,12.62,0,0,0-2.36-.45l-.39,0a4.33,4.33,0,0,0-3.11,1.32l-.36.38a9.32,9.32,0,0,1,3.34-4.49,5.13,5.13,0,0,1,2.73-.92,13.67,13.67,0,0,1,3.8.42c.65.16,1.28.31,1.92.49a4.3,4.3,0,0,0,4.08-.87c.21-.17.41-.35.61-.53l.28-.26c.11-.11.23-.22.33-.33a.19.19,0,0,1,0,.08v.05c0,.28,0,.56,0,.85s0,.78,0,1.18.2.68.71.68h0Zm-1.29-4.06c-.12-.43-.47-.51-.75-.58a2.29,2.29,0,0,1-.31-.09,15.49,15.49,0,0,1-1.64-.91c-.24-.15-.47-.32-.7-.49s-.23-.17-.34-.26-.25-.16-.29-.3,0-.18,0-.26a1.17,1.17,0,0,0-.12-.31l-.2-.4s0,.05.05.08,0,0,0,0a7.4,7.4,0,0,0,3.33,1.81,1.48,1.48,0,0,0,.78,0l.39.41a2.58,2.58,0,0,1,.75,1.37A1.61,1.61,0,0,1,362.1,52.33Zm-47.91-12.9,0,0a2.82,2.82,0,0,1-.1-.34,2.05,2.05,0,0,1,0-.61,2.36,2.36,0,0,1,.23-1.2l.19-.43L314,37a2.87,2.87,0,0,1-.4.18c-.3-.32-.59-.65-.88-1,0,0-.26-.28-.23-.28a4.6,4.6,0,0,0,.64-.05,2.29,2.29,0,0,0,1.9-1.5,5.14,5.14,0,0,0,.26-1.1,6,6,0,0,0-.27-2.69c-.24-.71-.5-1.4-.81-2.21a13,13,0,0,1-.92-3.42,6.41,6.41,0,0,1,.2-2.57,4.07,4.07,0,0,1,1.56-2.17,8.25,8.25,0,0,1,1.79-.92,14.44,14.44,0,0,1,6.08-.87,44.48,44.48,0,0,1,12.35,2.46,32.91,32.91,0,0,1,7.54,3.87c2,1.41,4.24,2.92,6.49,4.37A150,150,0,0,1,364.06,40c3.27,2.69,6.76,5.6,10.7,8.9a6,6,0,0,1,.7.45,3.62,3.62,0,0,1,.86.89l0,0c1.51,1.33,2.94,2.7,4.24,4.06.55.59,1.14,1.21,1.66,1.87a17.16,17.16,0,0,1,1,1.51l.2.31a1.77,1.77,0,0,1,.15.38.67.67,0,0,1-.34-.07l-.13,0a5.31,5.31,0,0,1-1.73-1c0-.59-.08-.65-.63-1.23s-1.38-1.46-2.08-2.17l-.76-.78-.31-.3c-.1-.1-.23-.23-.38-.2A.35.35,0,0,0,377,53a.9.9,0,0,0,.28.51,14.05,14.05,0,0,1,1.06,1.13,3.06,3.06,0,0,1,.37.69c.08.24.28.37.42.59A4.86,4.86,0,0,1,377,54.61a8.89,8.89,0,0,0-1.18-1l-.65-.52a2.92,2.92,0,0,0-.48-.37.23.23,0,0,0-.24,0,.26.26,0,0,0,0,.29,3.09,3.09,0,0,0,.93,1.3,4.94,4.94,0,0,1,1,1.25.19.19,0,0,1-.16.31,1.42,1.42,0,0,1-.53-.13,6.3,6.3,0,0,1-1.06-.75c-.46-.37-.86-.81-1.33-1.17a10.84,10.84,0,0,0-1.52-1,1.14,1.14,0,0,0-.47-.19.18.18,0,0,0-.18.06.24.24,0,0,0,0,.12,2.68,2.68,0,0,0,.24.67,3.56,3.56,0,0,1,.38,1.2.92.92,0,0,1,0,.16l-.15,0c-.21-.12-.41-.25-.61-.39l-.38-.24c-1-.61-1.81-1.11-2.58-1.56a5.36,5.36,0,0,0-.74-.34.58.58,0,0,0-.62.13.48.48,0,0,0,0,.62l.18.26c.07.1.15.21.22.33a1,1,0,0,1,.18.38,1.82,1.82,0,0,1-.28-.13,19.85,19.85,0,0,1-2.79-2,1.45,1.45,0,0,1-.33-.44,3.68,3.68,0,0,0-.66-.93l-.49-.54c-.17-.18-.13-.31-.17-.56a3.18,3.18,0,0,0-.33-.87l-.11-.06s0,0,0,0a1.2,1.2,0,0,1,.07.59c-.05.2-.27.24-.45.29a5,5,0,0,1-4.2-1s0,.06.05.08,0,0-.06-.06a.43.43,0,0,1,.09.1l.13.2a1.06,1.06,0,0,1,.09.74c-.06.25-.61.09-.77,0a19,19,0,0,1-3.87-2.14,7.74,7.74,0,0,0,2.53,3,2.65,2.65,0,0,0,1.21.54,1.29,1.29,0,0,0,.61-.08l.07.09a3.58,3.58,0,0,1,.74,1.16s-.05,0-.12,0l-.38-.14c-.38-.15-.78-.31-1.14-.49a22.77,22.77,0,0,1-4.19-2.75.4.4,0,0,0-.33-.14c-.31.07-.36.72-.41,1v0l-.12,0a4.69,4.69,0,0,1-.45-.18,17.4,17.4,0,0,1-3.77-2.37l-.13-.11a2.82,2.82,0,0,0-.39-.29.92.92,0,0,0-.46-.11.55.55,0,0,0-.46.24.58.58,0,0,0-.08.53,1.26,1.26,0,0,0,.13.26.85.85,0,0,1,.14.36h-.18a3.71,3.71,0,0,1-1.31-.57c-.47-.32-.93-.68-1.37-1l-.25-.2-.3-.28-.09-.09a.6.6,0,0,0-.77-.14,1,1,0,0,1-.7.07h-.05a5.42,5.42,0,0,1-2.85-1.21,3.64,3.64,0,0,1-.34-.34l-.19-.21-.05,0h-.08a1.14,1.14,0,0,0-.68.37.8.8,0,0,1-.52.28l-.23-.25c-.2-.23-.44-.28-.61-.15a.3.3,0,0,0-.08.07.72.72,0,0,0-.24.4.66.66,0,0,0,0,.37l0,.09a3.79,3.79,0,0,1,.11.7,3.32,3.32,0,0,1,0,.7s0,.07,0,.09l-.06.38a2.33,2.33,0,0,1-.21.61.46.46,0,0,1-.24.24.45.45,0,0,1-.35-.07l-.1-.06-.07,0-.25-.18-.14-.11a.91.91,0,0,0-.66-.18.83.83,0,0,0-.48.49l0,.08a.34.34,0,0,1-.12.2.46.46,0,0,1-.34.07.53.53,0,0,1-.37-.23,1.33,1.33,0,0,1-.25-.56,1.07,1.07,0,0,0-.74-.89l-.09,0a3.37,3.37,0,0,0-.75-.23,2.32,2.32,0,0,0-.91,0,1.89,1.89,0,0,0-.4-1.16l.06-.07a2.27,2.27,0,0,0,1.07,0,.76.76,0,0,0,.53-.82c-.05-.18-.16-.41,0-.5a.32.32,0,0,1,.22,0,1.6,1.6,0,0,0,1.54-1.48,4.08,4.08,0,0,0-.58-2.24,6,6,0,0,0-1.73-2.33,8.71,8.71,0,0,1,1.2,4.06,1.6,1.6,0,0,1-.21,1,.94.94,0,0,1-1.52-.12,1.55,1.55,0,0,1-.63,1.16,1.31,1.31,0,0,1-.37.15c-.13-1.32-1.08-2.83-1.51-4.07a1.49,1.49,0,0,0-.19-1.1c-.1-.2-.21-.39-.33-.59a.78.78,0,0,0,.54.21,1,1,0,0,0,.85-.87,1.44,1.44,0,0,0-.35-1.21,1.77,1.77,0,0,0,1.79.61,1.22,1.22,0,0,0,.64-1.85,1.52,1.52,0,0,0,1.67-.69,1.48,1.48,0,0,0-.3-1.76l2,.05c.34,0,.8-.08.81-.41a3.82,3.82,0,0,0,1.81.73,1.32,1.32,0,0,0,.34,0,16,16,0,0,0,1.27,1.93,3.08,3.08,0,0,1,.61,2.65,1.75,1.75,0,0,1-1-.77,18.33,18.33,0,0,0-2.66-3,7.87,7.87,0,0,1,1.86,5.28c-.24.11-.5-.09-.67-.29-1.16-1.4-1.66-3.37-3.22-4.31a33.49,33.49,0,0,1,1.8,2.91c.6,1.09,1.13,2.48.41,3.5a22.12,22.12,0,0,0-2.86-4.48L333,38a5.23,5.23,0,0,1,.84,2c.09.75-.41,1.08-.51,1.72-.27,1.81,2.26-.66,1.55-.87a1.15,1.15,0,0,0,1.25-.61,2.4,2.4,0,0,0,.18-1.45,1.12,1.12,0,0,0,1.24-.07,1.08,1.08,0,0,0,.37-1.16.76.76,0,0,0,1,.31,1.14,1.14,0,0,0,.54-1,2.78,2.78,0,0,0-.34-1.15,10.29,10.29,0,0,0-2.65-3.36,1.1,1.1,0,0,0,.77-1,3.31,3.31,0,0,0,1.44.6,1.18,1.18,0,0,0,1.26-.71c.14-.52-.21-.8-.37-1.22.49-.08.84.57,1.33.59a.23.23,0,0,0,.22-.1.21.21,0,0,0,0-.13,2.28,2.28,0,0,0-1.23-1.79,11.28,11.28,0,0,0-2.09-.88,9.21,9.21,0,0,1-1.16-.5c-.44-.23-.88-.5-1.34-.69,0,.22.42.47.57.59a8,8,0,0,0,.85.58A9.41,9.41,0,0,1,338.6,29c.35.33.78.66.65,1.16a1,1,0,0,1-.92.77,2.87,2.87,0,0,1-1.77-.6c.2.31-.07.75-.43.86a2,2,0,0,1-1.1-.13l-1.53-.51a.53.53,0,0,1,0,.73,1.3,1.3,0,0,1-1.13.1,15.49,15.49,0,0,1-3.15-1.1c.38.57,1,1,1.34,1.57s.29,1.53-.37,1.75-1.26-.44-1.93-.59a3,3,0,0,1,.75,1,1.06,1.06,0,0,1-.24,1.16,1.3,1.3,0,0,1-1.23.09c-.41-.15-.71-.5-1.14-.57a1.29,1.29,0,0,1,.53,1.46c-.23.49-.9.45-1.38.24a1.31,1.31,0,0,1,.41,1.83,1.28,1.28,0,0,1-1.9-.05h0a3.7,3.7,0,0,0,.93,1.39h0l.21.15a1.31,1.31,0,0,0,1.48-.14c.09.24.17.49.24.73a20.82,20.82,0,0,1,.19,3.94v0a1.43,1.43,0,0,1-.29.65.63.63,0,0,1-.36.21,1.45,1.45,0,0,1-.32-.7c-.38-1.62-.76-3.25-1.15-4.87h0c.08,1.37.12,2.75.11,4.13a2.08,2.08,0,0,1-.17,1,.88.88,0,0,1-.41.4,1.51,1.51,0,0,1-.35-.63c-.21-.69-.41-1.38-.62-2.07a6.74,6.74,0,0,1,.07,2.61.26.26,0,0,0-.21,0,.54.54,0,0,0-.17.2,2.27,2.27,0,0,0-.2.57,1,1,0,0,1-.88-.3,2.4,2.4,0,0,1-.46-1.33c-.13-.89-.25-1.78-.38-2.67l.19,2.44a4.7,4.7,0,0,1-.05,1.45,1.52,1.52,0,0,1-.9,1.07.61.61,0,0,1-.46,0c-.31-.13-.38-.53-.4-.86l-.12-2.07a6.54,6.54,0,0,1-.52,3.2c-.16.31-.54.61-.82.54h0a.28.28,0,0,1-.16-.13.25.25,0,0,1-.06-.15v0a1.88,1.88,0,0,1-.12-.3l-.61-2.08a7.21,7.21,0,0,1,.15,1.67,2.1,2.1,0,0,1-.33,1.37,1.16,1.16,0,0,1-.37.33.8.8,0,0,1-.85-.27,2.34,2.34,0,0,1-.46-1.32,7.14,7.14,0,0,1-.11-.79c0-.22.05-.46-.11-.64a2.59,2.59,0,0,0,0,.44l.06.76a4.35,4.35,0,0,1-.05,1.44,1.5,1.5,0,0,1-.9,1.08.66.66,0,0,1-.46,0,.81.81,0,0,1-.39-.56,10.66,10.66,0,0,1-.17-2.1.19.19,0,0,1,0-.08l.06,0c.85-.17.92-.93.9-1.63,0,0,0,0,0,0v0a.12.12,0,0,0,.06.06,1.21,1.21,0,0,0,.88.09,3.12,3.12,0,0,0,.81-.37,1.26,1.26,0,0,0,.33-.27,1.18,1.18,0,0,0,.07-1,1.71,1.71,0,0,0,1.82,0s0,0,0,0a1.33,1.33,0,0,0,.29-1.9h0l-.13-.1-.1-.12a.58.58,0,0,1,.12.1.63.63,0,0,1,.11.12,1,1,0,0,0,1.27-.27.9.9,0,0,0-.17-1.05.53.53,0,0,0,.2-.16c.29-.44-.5-.81-.65-1.31.14.4.83.24,1-.16a1.51,1.51,0,0,0-.32-1.19.68.68,0,0,0,1,.08,1.06,1.06,0,0,0,.14-1.11,3.15,3.15,0,0,0-.72-.95c.2.2.57,0,.64-.25a1.19,1.19,0,0,0-.18-.79l-.78-1.52.58.16a1.9,1.9,0,0,0-.33-2.07l.62.11A4.09,4.09,0,0,0,319.71,28a1.85,1.85,0,0,1,.48,1.34c-.07.48-.62.9-1.06.68a1.69,1.69,0,0,1,.32,2,.73.73,0,0,0-.16.41.75.75,0,0,0,.19.39,1.87,1.87,0,0,1,.12,1.83,1.34,1.34,0,0,0-.16.37c-.08.35.19.68.26,1s-.34.8-.58.53a1.24,1.24,0,0,1,0,1.38,1.32,1.32,0,0,1-.59.22,1.37,1.37,0,0,1,0,1.2,1.08,1.08,0,0,1-.82.4h-.3a3.54,3.54,0,0,1,.06,1.71.35.35,0,0,1-.37.36,3,3,0,0,1-1.41-.29c-.08.26-.06.56-.14.84a1.25,1.25,0,0,1-.51.74,1.7,1.7,0,0,1-1,.15c-.51,0-1.43-.23-1.62-.79C313.48,41.8,314.62,40.84,314.19,39.43Zm12.71.89c-.08-.23-.15-.47-.24-.69a1.34,1.34,0,0,0,.11-.14C326.82,39.77,326.86,40,326.9,40.32ZM312,52.58c.06-.12.06-.28.16-.38l0,0s.05,0,.06,0a1.14,1.14,0,0,1-.19,1.12,1,1,0,0,1-1.26.25c-.09.18-.14.32-.22.46a3.35,3.35,0,0,1-.39.59.74.74,0,0,1-.84.19,1.69,1.69,0,0,1-.59-.57.49.49,0,0,1-.13-.27.15.15,0,0,1,0-.11h.06c.1,0,.16.06.23.12s.37.45.67.42.41-.3.48-.52a4.85,4.85,0,0,0,.17-.86c0-.12,0-.26.07-.38s.28-.16.35-.07a3.71,3.71,0,0,1,.23.32.51.51,0,0,0,.83.06A1.54,1.54,0,0,0,312,52.58ZM311.38,51a.17.17,0,0,1,0,.14.3.3,0,0,1,0,.1l-.1.15a1.51,1.51,0,0,1-.18.26,2,2,0,0,1-.48.4.65.65,0,0,1-.62,0,1.15,1.15,0,0,1-.49-.41c-.06-.09-.1-.19-.15-.28a.46.46,0,0,1-.09-.3.3.3,0,0,1,0-.1.14.14,0,0,1,.15,0,.69.69,0,0,1,.13.11,1.07,1.07,0,0,1,.19.28.66.66,0,0,0,.21.23.64.64,0,0,0,.65.05c.26-.13.29-.4.47-.6a.23.23,0,0,1,.07-.07A.15.15,0,0,1,311.38,51Zm-2.75-1.05a1.9,1.9,0,0,0,.3-.4,2.64,2.64,0,0,0,.31-1.19.36.36,0,0,1,0-.18.14.14,0,0,1,.14-.1.22.22,0,0,1,.15.13c.12.18.09.41.16.61s.21.44.49.46a.63.63,0,0,0,.57-.38c.09-.17.11-.5.34-.55a.35.35,0,0,1,.07.26,1.88,1.88,0,0,1-.18.5,1.12,1.12,0,0,1-.34.38c-.38.26-.76.07-1.15-.06a8.09,8.09,0,0,1-.46.68c-.11.13-.49.43-.66.22S308.53,50,308.63,49.9ZM296.25,28.58a.91.91,0,0,1,.63-.33h.31a3.59,3.59,0,0,1,1,.06,2.36,2.36,0,0,0,1.81-.14l.05,0c.27.1.52.2.79.28a1,1,0,0,0,.75-.1l.19-.07a2.43,2.43,0,0,1,1.39,2.42v.2a3.2,3.2,0,0,1-.07.63,1.31,1.31,0,0,0,.53,1.32l.28.19.13.07a7.85,7.85,0,0,1,2.36,2.51,13.26,13.26,0,0,1,1.11,2.46,1.12,1.12,0,0,1,0,.21v.07a3.47,3.47,0,0,1-1.33.86,1.13,1.13,0,0,1-.81,0,1.82,1.82,0,0,0-.63-.14,1.37,1.37,0,0,0-.39.06,1.91,1.91,0,0,1-.6,0h-.21c0-.38-.06-.71-.09-1l0-.48a1.79,1.79,0,0,1,0-.23v-.06a5,5,0,0,0-2.37-4,1.29,1.29,0,0,0-1.17-.25,2.29,2.29,0,0,1-.36.07h-.17a.66.66,0,0,1-.59-.18,7.75,7.75,0,0,0-3.51-1.84l-.05,0a2.86,2.86,0,0,0-.09-1.77c.1-.05.18-.11.28-.15A2.36,2.36,0,0,0,296.25,28.58ZM248.08,50.92a2.12,2.12,0,0,0-.33.56,1.71,1.71,0,0,1-.41.44c-.3.29-.61.58-.93.86a1.44,1.44,0,0,1-.83.44.32.32,0,0,1-.14,0,.23.23,0,0,1-.1-.12,3.41,3.41,0,0,1-.41-1.1.41.41,0,0,0-.13-.28c-.46-.32-1,1-1.16,1.26a2.91,2.91,0,0,1-1.23,1,.72.72,0,0,1-.51.12.68.68,0,0,1,0-.19c0-.13,0-.25.07-.38a4,4,0,0,0,.07-.48.58.58,0,0,0-.19-.48.51.51,0,0,0-.64,0,2.17,2.17,0,0,0-.29.24l-.14.12a13.72,13.72,0,0,1-2.54,1.79,7.65,7.65,0,0,1-1.15.48,1.68,1.68,0,0,1-.4,0h0c-.06-.06-.05-.13,0-.23.19-.45.4-.9.6-1.33l0-.09c.05-.11.11-.21.17-.32a2.75,2.75,0,0,0,.17-.29.46.46,0,0,0-.13-.62.49.49,0,0,0-.64,0,5.22,5.22,0,0,0-.6.55c-.25.26-.5.52-.74.79s-.61.66-.93,1a5.3,5.3,0,0,1-.81.72,3.4,3.4,0,0,1-1.42.71.87.87,0,0,1,0-.5l0-.13.06-.22a2.41,2.41,0,0,0,.12-.48.63.63,0,0,0-.26-.45.53.53,0,0,0-.46,0,.69.69,0,0,0-.21.16l-.12.09c-.18.13-.37.25-.55.39a11.73,11.73,0,0,1-1.2.78,28.14,28.14,0,0,0-2.86,1.74,3.93,3.93,0,0,1-1.5.69h-.17l0-.08c.07-.17.13-.33.2-.48a11,11,0,0,1,3.11-4.09l.12-.09c.5-.41,1-.83,1.56-1.2a79.86,79.86,0,0,0,8-6.51l1.14-1c2.35-2.12,4.79-4.31,7.21-6.43,5.66-5,12.28-8.37,18.31-12.79a26.88,26.88,0,0,1,7-3.85l1.38-.47c1-.35,4.2-1.34,4.64-1.45a33.25,33.25,0,0,1,10.09-1,17.3,17.3,0,0,1,3.79.58,7.55,7.55,0,0,1,1.7.72,3.09,3.09,0,0,1,1.56,2.26,4.37,4.37,0,0,1,.05,1.51c-.13.76-.27,1.52-.41,2.22a2.28,2.28,0,0,1-.13.36.25.25,0,0,0,0,.09l-.73-.13-.81.06-.07,0-.2.11-.34.19a1.13,1.13,0,0,0-.55,1.43v.08l.11.35a.33.33,0,0,1-.11.13l-.13.08a1.56,1.56,0,0,0-.19.14l-.36.28a6.2,6.2,0,0,0-.64.53,3.2,3.2,0,0,0-.8,3.39c0,.07,0,.13.06.22l-.08.2-.18.45c-.09.26-.16.54-.23.82a.57.57,0,0,1-.42-.15,1.2,1.2,0,0,1-.18-1.12,3.17,3.17,0,0,1,.66-1.29.65.65,0,0,1-.91-.43,1.39,1.39,0,0,1,.29-1.09c.16-.23.32-.45.47-.68a.37.37,0,0,1-.39-.05.82.82,0,0,1-.12-.78,3.63,3.63,0,0,1,.28-.78c-.34.48-.68.95-1,1.42a3.24,3.24,0,0,0-.85,1.9.1.1,0,0,0,0,.07.17.17,0,0,0,.12,0h.15l.19-.08c.14-.08.31-.21.23,0s-.13.34-.18.51a6.27,6.27,0,0,0-.2,1,1.67,1.67,0,0,0,.07.77.68.68,0,0,0,.61.44,4.92,4.92,0,0,0-.69,2.85.85.85,0,0,0,.06.31l0,.07a.46.46,0,0,0,.18.23.66.66,0,0,0,.46,0,1.81,1.81,0,0,0,1-.61c0,.1,0,.21,0,.32a.51.51,0,0,0,.11.22l-.06.05.24.07.06,0a.55.55,0,0,0,.31,0c.14-.06.28-.14.41-.21l.09,0a2.57,2.57,0,0,1-.53.78l-.39.89,0,.1a2.17,2.17,0,0,0,0,.25c-.1.46-.21,1-.27,1.5a5.62,5.62,0,0,0-.05.93.41.41,0,0,0,0,.11,1.48,1.48,0,0,0-.33.9,20.7,20.7,0,0,0,.14,5.39l0,.09s0,0,0,.07a4.18,4.18,0,0,0,.34.78c0,.17,0,.35-.06.52v.07a.77.77,0,0,1-.28.6,1.3,1.3,0,0,1-.9-.84,2.28,2.28,0,0,1-.15-.36,4,4,0,0,0-.19-.43c-.27-.55-.5-.63-1.08-.4l-.1,0a2.18,2.18,0,0,1-.47.16c-.51.12-.48-.44-.6-.77-.2-.55-.52-1-.71-1.61a10.92,10.92,0,0,1-.33-3.07c-.05-.9-.06-1.8,0-2.7a18.09,18.09,0,0,0-1,3.46c-.09.41-.17.65-.6.8a.66.66,0,0,1-.58,0,.92.92,0,0,1-.31-.81,8.1,8.1,0,0,1,.29-2.35,9.86,9.86,0,0,1,.52-1.65l-1.39,2.44c-.18.31-.06.68-.54.36a1.53,1.53,0,0,1-.63-1.15,1,1,0,0,1-1.52.12,1.57,1.57,0,0,1-.21-1A8.86,8.86,0,0,1,279.63,37a6.1,6.1,0,0,0-1.72,2.34,4.07,4.07,0,0,0-.58,2.23A1.59,1.59,0,0,0,278.87,43a.41.41,0,0,1,.22,0c.16.09,0,.32,0,.49a.76.76,0,0,0,.53.83,2.4,2.4,0,0,0,1.07,0l.06.06a1.9,1.9,0,0,0-.31,1.73,1.27,1.27,0,0,1-.62-.23,1.49,1.49,0,0,0-1-.32,1.29,1.29,0,0,0-.6.37,12.82,12.82,0,0,0-1.35,1.69.71.71,0,0,1-.7.32c-.72-.15-.67-1.39-.56-1.93a4,4,0,0,0,.18-1,3.66,3.66,0,0,1-.33.23,1.33,1.33,0,0,0-.24.36c-.18.37-.35.75-.56,1.11s-.33.69-.55.82a.41.41,0,0,1-.36,0,1.06,1.06,0,0,1-.31-.21,2.63,2.63,0,0,1-.52-2.64c.06-.17.11-.38,0-.5a.33.33,0,0,0-.21-.07c-.24,0-.62.37-.82.22a.79.79,0,0,1-.24-.33c0-.07-.07-.13-.1-.19a.62.62,0,0,0-.39-.3.58.58,0,0,0-.45.14,2.73,2.73,0,0,0-.39.36,1.45,1.45,0,0,1-1-1.51A16.3,16.3,0,0,1,265,44.08c-.45.08-1.08,0-1.16-.42a.85.85,0,0,1,.19-.56,5.93,5.93,0,0,1,2-1.86,15,15,0,0,1-4.2,1.31c-.59.09-1.41,0-1.43-.62a1,1,0,0,1,.3-.66,8.41,8.41,0,0,1,2-1.75,15.19,15.19,0,0,1-3.94,1.83,2,2,0,0,1-1.72-.06.82.82,0,0,1-.16-1.11,3,3,0,0,1-1.26.55,4.89,4.89,0,0,1-1.52.16.77.77,0,0,1-.49-.15c-.46-.4.07-1.17.45-1.59a9.73,9.73,0,0,0-1.52,1.8,1.05,1.05,0,0,0-.15,1c.27.48,1.07.3,1.49.19s.57-.15.85-.24a6.4,6.4,0,0,0,.62-.2c.11,0,.54-.15.59-.26-.32.8.56,1.66,1.43,1.69a4.16,4.16,0,0,0,2.37-1,.88.88,0,0,0,.44,1.22,2.38,2.38,0,0,0,1.47,0,13.57,13.57,0,0,0,2.49-.78c-.31.78-1.46,1.38-1.07,2.12a1.19,1.19,0,0,0,.88.49,5.27,5.27,0,0,0,3.94-.83,1.37,1.37,0,0,1,.81-.35,1.91,1.91,0,0,1,.67.26,1.53,1.53,0,0,0,.67.11,5.78,5.78,0,0,1-1,1,2.68,2.68,0,0,1-1.78.54,1,1,0,0,1-.74-.21.5.5,0,0,0-.74,0c-.17.16-.33.33-.49.5l-.39.39A4.51,4.51,0,0,1,263,47.83l-.06,0-.14,0a.61.61,0,0,1-.16-.09.92.92,0,0,1,0-.28,2.08,2.08,0,0,0,0-.23.49.49,0,0,0-.34-.54.7.7,0,0,0-.51.08l-.93.65L258.7,49a7.25,7.25,0,0,1-.88.49,2.3,2.3,0,0,1-.48.17c-.25,0-.34,0-.42-.23l-.06-.2c0-.11-.06-.22-.1-.34a.53.53,0,0,0-.34-.3.56.56,0,0,0-.44.1,5.46,5.46,0,0,0-.44.38l-.1.1A14.69,14.69,0,0,1,253,51.08a24.27,24.27,0,0,1-2.56,1.13.25.25,0,0,1-.11,0,.29.29,0,0,1-.2-.11l-1.11-1C248.76,50.94,248.38,50.59,248.08,50.92ZM259.65,59l-1.77.42c-.9.22-1.79.43-2.7.63a18.9,18.9,0,0,1-2.25.36,6,6,0,0,1-3.58-.67,11.65,11.65,0,0,1-3.64-3.09l.15,0h3c.41,0,.68,0,.84-.23s.14-.46.06-.85-.21-1-.33-1.56c-.07-.35-.15-.69-.22-1a.28.28,0,0,1,0-.09l.34.25a9.92,9.92,0,0,0,2.37,1.35,6,6,0,0,0,3,.35q.93-.13,1.86-.3l1-.17a11.11,11.11,0,0,1,3.27-.11,6.13,6.13,0,0,1,3.41,1.48A7.17,7.17,0,0,1,267,60.4a4.07,4.07,0,0,0-3.48-1.89A16.24,16.24,0,0,0,259.65,59Zm-.51,6.26a1.11,1.11,0,0,1,0-.33h0a3.43,3.43,0,0,1,.83-1.4c.38-.37.78-.73,1.17-1.08l0,0,.69-.59c.31-.26.62-.52.92-.79a3.88,3.88,0,0,0,1.09-1.36,2.6,2.6,0,0,1,2.22,1.44,4.38,4.38,0,0,1,.42,2.11,1.36,1.36,0,0,1-.1.41,10.07,10.07,0,0,1-2.14,3.21,13.43,13.43,0,0,1-5.17-1.53ZM267,75.29h0a14.29,14.29,0,0,1-3.75-1.05,6.49,6.49,0,0,1-3.43-3.48,10.72,10.72,0,0,1-.9-4.1v-.15a.49.49,0,0,0,0-.12l.34.14.26.1A14.72,14.72,0,0,0,263,67.7a15.7,15.7,0,0,0,3.11.19,34.64,34.64,0,0,0,6-.93l1.77-.39c2-.44,4.07-.9,6.12-1.32a26.39,26.39,0,0,1,5.16-.57h.14a23.46,23.46,0,0,1,6,.87c.63.17,1.26.36,1.87.56l1,.31a1.09,1.09,0,0,1,.7.5c.2.33.42.63.66,1l.25.35.09.12.13-.08a.75.75,0,0,0,.35-.63.77.77,0,0,1,.06-.27l.19.12.15.1s0,0,0,0a.44.44,0,0,1,0,.1v.51a7.69,7.69,0,0,0,0,.83,6.09,6.09,0,0,0,.87,2.73,10.43,10.43,0,0,0,1.43,1.81l.14.16-.29-.05a73.87,73.87,0,0,0-7.32-1.45,35.82,35.82,0,0,0-9.21-.2A33.55,33.55,0,0,0,277,73.2a70,70,0,0,1-7.31,1.72c-.69.13-1.4.24-2.11.35A1.6,1.6,0,0,1,267,75.29Zm-3,4.9,1.52.82,1.22.66s0,0,0,0a.23.23,0,0,1,0,.13,142.77,142.77,0,0,0,.14,15.46.49.49,0,0,1-.16-.06L266,96.8l-.51-.33C264.62,93.16,263.64,82.52,264,80.19ZM262.29,95.8v-.12l0,0,.25.14,1.29.83,2.71,1.71a.84.84,0,0,1,.46.75,108.19,108.19,0,0,0,1.61,12.49,92,92,0,0,0,2.48,10.21A60.72,60.72,0,0,0,274.5,131a68.36,68.36,0,0,0,10.57,16c.12.14.24.27.36.43a22,22,0,0,1-3.09,3.24.67.67,0,0,1-.27-.22l-.12-.13a53.58,53.58,0,0,1-11.56-16.22A87.14,87.14,0,0,1,264,114.46a92.2,92.2,0,0,1-1.44-10.74c-.18-2.56-.28-5-.3-7.41C262.28,96.15,262.29,96,262.29,95.8ZM243.21,67.06a1.68,1.68,0,0,1,0-.18l0,0a1.24,1.24,0,0,1,.27.17c3.24,2.29,6.69,4.62,10.28,6.92l.06,0a3.62,3.62,0,0,1,.32.22,1.18,1.18,0,0,1,.47,1c.13,2.55.28,5.57.51,8.65.08,1.21.22,2.44.34,3.62.07.63.14,1.27.2,1.91a2,2,0,0,0,0,.26,2.63,2.63,0,0,1,0,.62l-2.18-1.37-3.87-2.46-7.23-4.61C242.72,76.17,242.94,71.48,243.21,67.06Zm-5,1c-2-2.49-4.09-5-6.14-7.57l4.54,1.57,4.74,1.64c.18.52.35,1,.53,1.52l.24.71,0,.13c0,.26,0,.53,0,.78a7.66,7.66,0,0,1-.07,1A27,27,0,0,1,238.26,68.1Zm-1.94,13.77c-.71,0-1.44,0-2.17,0a1,1,0,0,1-.87-.42c-.79-1-1.59-1.91-2.39-2.86l-1.45-1.71-1.68-2-1.29-1.54-.17-.2.14,0,.12,0,6,2.3,1.3.5c1,.4,2.08.81,3.13,1.19a.81.81,0,0,1,.61.7,7.47,7.47,0,0,0,.23,1l.09.34a4.58,4.58,0,0,1,0,2.64h-.1C237.25,81.9,236.8,81.87,236.32,81.87Zm15.32,70.39h0a2.42,2.42,0,0,1-.46-.49l-.09-.11a42.21,42.21,0,0,1-5-8.11,71.62,71.62,0,0,1-4-10.59,99.31,99.31,0,0,1-3-13.32c-.46-3-.8-6.21-1-9.47-.26-3.77-.35-7.86-.28-12.49.06-2.9.2-5.76.43-8.49.2-2.29.42-4.61.64-6.85l.07-.77a2.4,2.4,0,0,1,.11-.66l.06,0q5.85,3.7,11.67,7.44l1.13.72.06.06.05.06v0c0,.12,0,.27,0,.41-.13,3.84-.1,7.84.1,11.89A94.22,94.22,0,0,0,254,116.29a90.55,90.55,0,0,0,5.2,16.49,97.82,97.82,0,0,0,5.69,11.55,48,48,0,0,0,5.92,8.33c.65.72,1.36,1.42,2.05,2.1l1,1c.14.14.29.28.43.43a1.94,1.94,0,0,1-.53.23l-.16.05a23.9,23.9,0,0,1-6.37,1.31,18.92,18.92,0,0,1-6.16-.59,22.7,22.7,0,0,1-4.3-1.69A34.69,34.69,0,0,1,251.64,152.26Zm49,31.52a1.65,1.65,0,0,1-1.16,1.08,1,1,0,0,1,0-.42v0h0a4.87,4.87,0,0,0,0-.66,4.11,4.11,0,0,1,.14-1.06H300a.92.92,0,0,1,.66.36A.86.86,0,0,1,300.68,183.78Zm.45-7.73-.09,1.19c-.11,1.47-.23,3-.4,4.51h0a1.57,1.57,0,0,1-.24,0,4.69,4.69,0,0,0-1.79,0,9.45,9.45,0,0,1-3-.05,2.85,2.85,0,0,1-.64-.2.76.76,0,0,1-.5-1,1.41,1.41,0,0,1,.64-1,5.75,5.75,0,0,1,1-.52,7,7,0,0,1,.69-.22l.47-.14a3.43,3.43,0,0,0,.8-.32.89.89,0,0,0,.44-.54.86.86,0,0,0-.18-.69,2.13,2.13,0,0,0-.55-.53,9,9,0,0,0-1.18-.67,12.27,12.27,0,0,0-4.49-1.12c-.64,0-1.28,0-2-.07h-.52a.48.48,0,0,1,.06-.18c.23-.41.48-.81.72-1.22s.59-1,.87-1.48a52.21,52.21,0,0,0,5.34-13c.07-.28.13-.53.17-.78a.73.73,0,0,0-.07-.36l-.34-.25a.54.54,0,0,0-.41,0,4.57,4.57,0,0,0-.47.29l-.14.09a68.13,68.13,0,0,1-6.16,3.71,32,32,0,0,1-8.18,2.8,26.25,26.25,0,0,1-7.53.29,30.4,30.4,0,0,1-16.68-7.13c-.61-.51-1.21-1.06-1.79-1.59l-.49-.44.06,0a28.66,28.66,0,0,0,4.43,2.12,19.66,19.66,0,0,0,9.21,1.07,25.09,25.09,0,0,0,5-1.05,21.31,21.31,0,0,0,6.58-3.49,42.92,42.92,0,0,0,5.87-5.41c.15-.18.32-.35.47-.51l0,0a89.83,89.83,0,0,0,10.21,9.2.49.49,0,0,1,.18.08.52.52,0,0,1,.16.17c1.63,1.26,3.32,2.48,5.09,3.68C301.77,165.9,301.53,170.7,301.13,176.05Zm-6.1.33a2.34,2.34,0,0,1,.75.24l.2.09.18.08a3.32,3.32,0,0,1,1.18.72,2.48,2.48,0,0,1-.74.25,4.43,4.43,0,0,0-.56.17l-.83.35-.41.17A7.7,7.7,0,0,1,295,176.38Zm10.29-14.3-.17.12a2.46,2.46,0,0,1-.59-.33l-.12-.08a94.59,94.59,0,0,1-10.4-7.64l-.79-.69-.25-.22a4,4,0,0,1,2.39-3.39,1.62,1.62,0,0,1,.4-.11l.26,0,.44-.09a1.88,1.88,0,0,0,1.65-1.81,1.42,1.42,0,0,1,.57-1,1.23,1.23,0,0,1,1.36-.31,1.9,1.9,0,0,0,2.61-.91l.13-.15.05,0c.23-.07.75.14,1,.12s.65-.14,1-.17c.73-.05,1.41-.39,2.14-.44a2.79,2.79,0,0,1,.58,0,7.25,7.25,0,0,1,1.78.44c.34.13.46.42.77.57a1,1,0,0,0,1.12-.2,1.62,1.62,0,0,0,.19-.18,1.07,1.07,0,0,1,.16-.14,1.67,1.67,0,0,1,.36-.25,1,1,0,0,1,.95,0,1,1,0,0,1,.48.8.39.39,0,0,1,0,.23,1.14,1.14,0,0,1-.1.19,2.4,2.4,0,0,0-.11.23c-.28.58-.25.68.29,1.06a.39.39,0,0,1,.18.5c-.06.19-.13.38-.2.56l-.09.24-.11.26a3.85,3.85,0,0,0-.19.47,1.09,1.09,0,0,0,.52,1.38,4.32,4.32,0,0,0,.56.3l.16.08c.81.4,1.11.55.77,1.75-.1.35-.22.7-.35,1s-.17.48-.25.73a1.31,1.31,0,0,1-.48.66l-.9.71c-.48.38-1,.77-1.46,1.14-1.88,1.39-3.76,2.77-5.85,4.29Zm4.95,22.7a1.7,1.7,0,0,1-1.13-1.49l.06,0,.31-.22a3.58,3.58,0,0,1,.39-.21l.05,0h0a.65.65,0,0,1,.09.15A5.21,5.21,0,0,1,310.27,184.78Zm32.1-21.36a25.29,25.29,0,0,1-9.19.93A37.45,37.45,0,0,1,320.6,161a62,62,0,0,1-6.18-3.16l-.08,0a4.25,4.25,0,0,0-.56-.29.47.47,0,0,0-.46,0,.5.5,0,0,0-.22.42,4.64,4.64,0,0,0,.13.79,54.2,54.2,0,0,0,3.43,9.68c1,2,2,4.07,3.21,6l.12.17a1,1,0,0,1,.17.34,4.7,4.7,0,0,1-.92.09h-.16l-2.64.12-1.48.07a6.65,6.65,0,0,0-2.35.58,2.82,2.82,0,0,0-1.07.8,1.08,1.08,0,0,0,.13,1.66,6.22,6.22,0,0,0,.94.64,8.47,8.47,0,0,1,2.25,1.87,2.92,2.92,0,0,1,.21.28l0,.06c-.19.56-.26.57-.75.51a4.11,4.11,0,0,1-.9-.17,5.34,5.34,0,0,0-4.32.57.75.75,0,0,1-.13.06l-.05,0a.19.19,0,0,1,0-.13v0c0-.34-.05-.67-.06-1-.08-1.93-.15-3.86-.23-5.79l-.15-3.82c-.12-3.1-.26-6.19-.39-9.3v-.59c.21-.16.43-.33.66-.49,3.27-2.38,6.06-4.57,8.52-6.68,2.24-1.92,4.32-3.88,6.2-5.84a5,5,0,0,1,.41-.39.83.83,0,0,1,.29.3l.07.11a38.22,38.22,0,0,0,3.27,3.74A21.57,21.57,0,0,0,339,158.26a22.69,22.69,0,0,0,12.65-1,18.24,18.24,0,0,0,4.24-2.37A30.55,30.55,0,0,1,342.37,163.42Zm-27.23,16.11a10.5,10.5,0,0,0-2.16-1.62,5,5,0,0,1-.63-.44.13.13,0,0,1-.05-.09.19.19,0,0,1,0-.09,4.29,4.29,0,0,1,.58-.48,2.5,2.5,0,0,1,.53-.23l.73-.2.09,0A7.81,7.81,0,0,1,315.14,179.53Zm56.67-77.2c-.05,3.94-.24,7.82-.59,11.54a111.11,111.11,0,0,1-2.1,13.56,72.34,72.34,0,0,1-5.07,15.23c-.57,1.22-1.21,2.46-1.9,3.68a25.41,25.41,0,0,1-7.7,8.3,17,17,0,0,1-7,2.73,22.86,22.86,0,0,1-10.66-.74l-.76-.26a.9.9,0,0,1,.24-.31l.12-.13c1.77-1.94,3.44-3.93,5-5.93a63.11,63.11,0,0,0,7.8-13.52,109.21,109.21,0,0,0,6.7-21.34,97.86,97.86,0,0,0,1.53-10,124.67,124.67,0,0,0,.54-15v-.8c4.72-2.92,9.22-5.91,13-8.45a2.84,2.84,0,0,1,.08.72v.1c.19,3.35.38,6.7.55,10.06C371.74,95.69,371.83,99.13,371.81,102.33Zm4.47-20.47c-.76,0-1.52,0-2.26-.07s-1.27-.07-1.9-.07a3.42,3.42,0,0,1,0-2.08c.11-.29.23-.57.35-.84l.62-1.55a.89.89,0,0,1,.61-.57c1.9-.63,3.8-1.28,5.71-1.93l2.44-.84,1.6-.54.39-.13Q380.07,77.56,376.28,81.86Z" transform="translate(-18.99 -17.42)"/><path class="cls-1" d="M309.16,98.86a2.59,2.59,0,0,0,.31.65,1.08,1.08,0,0,1,.19.74,2,2,0,0,0,1.17,2,3,3,0,0,0,2.81,0l.54-.28c.4.13.74.26,1.09.35a2.52,2.52,0,0,0,2.11-.26,1.27,1.27,0,0,1,1.1-.18,3.68,3.68,0,0,0,.58.07,3,3,0,0,0,2.54-1c.09-.11.19-.21.29-.31s.45,0,.68,0c.67,0,1.36,0,2-.06a3.76,3.76,0,0,0,3.07-1.93l.35-.5.25,0a3.47,3.47,0,0,0,3.18-2.47,5,5,0,0,0,.29-1.63c0-.21,0-.43,0-.6l.71-.59a2.63,2.63,0,0,0,.82-2.56,6,6,0,0,0-.36-1.08c-.09-.23-.21-.44-.32-.66.1-.26.22-.54.32-.8a2.68,2.68,0,0,0,.11-1.7,2.45,2.45,0,0,0-1.84-1.86,2.3,2.3,0,0,0-2.49.79,3.14,3.14,0,0,0-.38.52,1.06,1.06,0,0,1-.72.55,2.52,2.52,0,0,0-1.85,1.77.89.89,0,0,1-.25.43c-.35.3-.68.61-1,.9-.67.08-1.33.13-2,.26a1.1,1.1,0,0,1-.95-.16A3.68,3.68,0,0,0,320,88.6a5.25,5.25,0,0,0-4.31,1.1,9,9,0,0,0-2.6,3.35,5,5,0,0,0-.41,2.81.87.87,0,0,1,0,.65l-.33-.17a2.3,2.3,0,0,0-1.41-.24A2.07,2.07,0,0,0,309.16,98.86ZM329.5,85.13a1.46,1.46,0,0,1,.92-.38,1.86,1.86,0,0,1,1.77,1,1.77,1.77,0,0,1,.27,1,1.54,1.54,0,0,1-.32,1,16.44,16.44,0,0,0-1.53-1.1,14.37,14.37,0,0,0-1.68-.71A1.32,1.32,0,0,1,329.5,85.13Zm-13.43,5.09a4.77,4.77,0,0,1,3.55-1,3.7,3.7,0,0,1,2.3,1.14A8.58,8.58,0,0,1,323.7,93a4.21,4.21,0,0,0,.29.51l.19,0,.07-.1a1.36,1.36,0,0,0-.06-.36,9,9,0,0,0-1.2-2.38c-.1-.15-.21-.31-.31-.44s.19-.2.29-.22a3.88,3.88,0,0,1,2,0,2.7,2.7,0,0,1,1.69,1.3,6.87,6.87,0,0,1,.57,1.23c.12.31.25.42.36.35s.11-.29.07-.45a4.22,4.22,0,0,0-1.93-2.77c-.13-.07-.25-.16-.37-.24l0-.06a.56.56,0,0,1,.52-.43,3.63,3.63,0,0,1,3.33.79c.2.16.37.32.57.46H330c.06,0,.05-.16.06-.25l0,0a4.31,4.31,0,0,0-2.77-1.6,2.38,2.38,0,0,1-.87-.12,1.44,1.44,0,0,1,.62-1.11,2.17,2.17,0,0,1,1.64-.49,3.89,3.89,0,0,1,3.28,2.19c.09.17.21.34.29.5s.24.53.33.8a2.17,2.17,0,0,1-.77,2.51c-.25.19-.61.3-.69.61a4.84,4.84,0,0,0,0,.85,7.6,7.6,0,0,1-.14,1.28,2.68,2.68,0,0,1-1.71,1.94,3.4,3.4,0,0,1-1.35.29.55.55,0,0,0-.52.31c-.13.23-.27.46-.41.68a3.11,3.11,0,0,1-2.35,1.42,12.84,12.84,0,0,1-2.63,0c-.06,0-.12-.06-.23-.11.08-.18.16-.35.24-.5a6.51,6.51,0,0,0-.76-7.36,5.17,5.17,0,0,0-1.82-1.42,3.82,3.82,0,0,0-3.51,0,.8.8,0,0,1-.26.08A1.59,1.59,0,0,1,316.07,90.22Zm.33,5.1v0h0Zm1.71,3.21a7.36,7.36,0,0,1,.74,1.16,3.75,3.75,0,0,0,.24.44.37.37,0,0,0,.31.08.4.4,0,0,0,.19-.27.4.4,0,0,0,0-.28,4.79,4.79,0,0,0-1.22-1.85,3.24,3.24,0,0,0-.79-.51.7.7,0,0,1-.44-.52,3.71,3.71,0,0,1-.17-1.84,2.73,2.73,0,0,1,.1-.41A2.31,2.31,0,0,1,320,93a4.24,4.24,0,0,1,1.43.7.87.87,0,0,1,.31.38A5.61,5.61,0,0,1,321,99.6a3.27,3.27,0,0,1-1.79,1.18,1.39,1.39,0,0,0-.79.48,3.35,3.35,0,0,1-.37-.09.64.64,0,0,0-.67.13l-.18.12a1.91,1.91,0,0,1-1.8.32l-.71-.24a3.11,3.11,0,0,0,.24-1.36,3,3,0,0,0-.52-1.22A2.29,2.29,0,0,1,318.11,98.53Zm-4.76.33.07,0a2.33,2.33,0,0,1,.85,1.11,1.26,1.26,0,0,1-.31,1.26,2.44,2.44,0,0,1-3.08.22,1.34,1.34,0,0,1-.46-1.61,2.68,2.68,0,0,1,.32-.57,1.75,1.75,0,0,1,1.1-.64A1.93,1.93,0,0,1,313.35,98.86Zm-1.8-2.09a1.31,1.31,0,0,1,1.12,1.09c-.56.12-1,.22-1.49.35a3.07,3.07,0,0,0-1.16.88,1.4,1.4,0,0,1-.06-1.72A1.5,1.5,0,0,1,311.55,96.77Z" transform="translate(-18.99 -17.42)"/><path class="cls-1" d="M277.85,93.7c0,.19,0,.37.08.57a5.54,5.54,0,0,0,.85,2.28,3.7,3.7,0,0,0,2,1.54,1.51,1.51,0,0,1,.82.55A6.19,6.19,0,0,0,283,100a4.16,4.16,0,0,0,3.47.66,1.57,1.57,0,0,1,.37-.05l.29.21.28.24a4.73,4.73,0,0,0,3.39,1l.3,0a2.26,2.26,0,0,1,1.21.12,3,3,0,0,0,2.22,0,.74.74,0,0,1,.63-.07c.49.22.84-.06,1.15-.38a3.07,3.07,0,0,0,.24-.35l.51.14a3.54,3.54,0,0,0,2.16,0c.54-.15.8-.46.89-1.18,0-.49-.21-.85-.78-1.09-.19-.1-.4-.15-.65-.25-.05-.31-.11-.64-.16-1a2.15,2.15,0,0,0-1.34-1.76l-.49-.26c0-.5,0-1,0-1.41a6.44,6.44,0,0,0-4.09-5.67,4.12,4.12,0,0,0-2.57-.26,8.65,8.65,0,0,0-1.8.6,1.19,1.19,0,0,1-1,.08,4.89,4.89,0,0,0-2.15-.23h-.54a3.08,3.08,0,0,0-1-1.18c0-.1,0-.17-.05-.24a1.71,1.71,0,0,0-1.2-1.65.68.68,0,0,1-.38-.4,4,4,0,0,0-.87-1.06,2.06,2.06,0,0,0-1.47-.52,2.64,2.64,0,0,0-2.1,1.14,3,3,0,0,0-.59,2,7.31,7.31,0,0,1-.2,2.42,3.51,3.51,0,0,0,.84,3.42A1,1,0,0,1,277.85,93.7Zm9.89-3.39a1.23,1.23,0,0,1,.38-.34,5.72,5.72,0,0,1,2.69-.82,3.19,3.19,0,0,1,1.3.2,6,6,0,0,1,3.69,3.83,6.25,6.25,0,0,1,.22,2.36l0,.1c-.21,0-.17-.21-.18-.34a6.8,6.8,0,0,0-.45-2.1,4,4,0,0,0-7.1-.91,5.11,5.11,0,0,0-.91,3.55A8,8,0,0,0,289,99.71c.19.26.4.31.54.18s.15-.29,0-.52-.18-.28-.27-.42a7.75,7.75,0,0,1-.77-1.42,1,1,0,0,1,.95-.69c0,.25-.06.46-.06.67a.31.31,0,0,0,.26.31.3.3,0,0,0,.34-.2c0-.15.08-.32.13-.48a.9.9,0,0,1,1-.77h.15a.71.71,0,0,0,.88-.41,1.77,1.77,0,0,1,1.6-.86,1.6,1.6,0,0,1,1.29.56c.07.09.14.19.22.28s.16.18.61.15a1.8,1.8,0,0,0,.27.39,1.28,1.28,0,0,0,.4.15c.18.07.37.14.54.22a1.36,1.36,0,0,1,.75,1c.06.31.1.62.15.93a3,3,0,0,0,.06.42.43.43,0,0,0,.39.37,6.06,6.06,0,0,1,.7.19.44.44,0,0,1,.31.44c0,.25-.08.48-.35.57a2.73,2.73,0,0,1-1.44.15c-.33-.08-.65-.21-1-.3a2.84,2.84,0,0,0-.64-.1c-.22,0-.32.16-.31.39a1.91,1.91,0,0,1,0,.21.25.25,0,0,1-.26.28c-.22,0-.43-.07-.65-.1a.8.8,0,0,0-.74.19,1.13,1.13,0,0,1-1,.19,4.89,4.89,0,0,1-.9-.27,1.38,1.38,0,0,0-.78-.07,6.43,6.43,0,0,1-1.32.06,3.79,3.79,0,0,1-2.3-1,.52.52,0,0,1-.18-.22,4,4,0,0,0-.59-1.07l-.47-.82a6.49,6.49,0,0,1-.28-5.51A9.66,9.66,0,0,1,287.74,90.31Zm3.74,5.3a1,1,0,0,1-.24.07A3.32,3.32,0,0,0,290,96a9.78,9.78,0,0,1-1.19.28,2.68,2.68,0,0,0-.57.32,4,4,0,0,1-.2-2.19,4.07,4.07,0,0,1,1.17-2.23,3.18,3.18,0,0,1,2.05,2.55C291.3,95,291.4,95.29,291.48,95.61Zm-14.07-6.25a5.86,5.86,0,0,0,.19-1.91,4.26,4.26,0,0,1,0-1,2.12,2.12,0,0,1,1.55-1.75,1.39,1.39,0,0,1,1.47.33,4.38,4.38,0,0,1,.37.4c0,.21-.2.15-.31.17a8.86,8.86,0,0,0-1,.29,2.08,2.08,0,0,0-1.19,1.25c.26,0,.35-.12.47-.23a2.56,2.56,0,0,1,1.41-.68,1.33,1.33,0,0,1,.92.1,2.55,2.55,0,0,0,.63.18,1.08,1.08,0,0,1,.9,1.18l-.54.11a3.78,3.78,0,0,0-2.78,2,.91.91,0,0,0-.13.26.78.78,0,0,0,0,.26.71.71,0,0,0,.26-.07c.09-.1.14-.24.24-.35s.39-.5.61-.73a2.93,2.93,0,0,1,2.34-.8c.5,0,.76.27,1,.93a3.61,3.61,0,0,0-1.43,1.83,1,1,0,0,0-.06.73,1.22,1.22,0,0,0,.23-.19c.11-.16.17-.34.28-.5a7.91,7.91,0,0,1,.68-.85,2.15,2.15,0,0,1,1.35-.64,4.89,4.89,0,0,1,1.87.12,1.3,1.3,0,0,1,.37.16c-.16.24-.3.47-.45.68a8.76,8.76,0,0,0-1.47,3.42,7,7,0,0,0,.69,4.54c.2.41.44.8.69,1.26a2.94,2.94,0,0,1-2.27.05,4,4,0,0,1-1.54-.94c-.3-.28-.57-.59-.85-.9a1.76,1.76,0,0,0-.83-.55A3.41,3.41,0,0,1,278.69,95a6.94,6.94,0,0,1-.2-1.5,1,1,0,0,0-.4-.85,2.14,2.14,0,0,1-.89-1.88A6.31,6.31,0,0,1,277.41,89.36Z" transform="translate(-18.99 -17.42)"/><path class="cls-1" d="M303.64,93.67a7.36,7.36,0,0,0-2-1.51c-.67-.34-1.36-.67-2-1a3.71,3.71,0,0,0-.4-.15.36.36,0,0,0-.45.34,1.49,1.49,0,0,0,.14.55,17.66,17.66,0,0,0,1.39,2.61A5.93,5.93,0,0,0,303.69,97c.24.06.46.14.68.2a5.7,5.7,0,0,1-.05,2.4,2.77,2.77,0,0,0-.11.56.5.5,0,0,0,.15.38c.52.36,1.05.7,1.58,1a.33.33,0,0,0,.48-.18,1.48,1.48,0,0,0,.12-.41c0-.4.1-.81.12-1.22a9.25,9.25,0,0,0,0-2.23c-.09-.44-.13-.89-.18-1.34l.67-.36a6.8,6.8,0,0,0,2-1.48,10,10,0,0,0,2.14-4.28l0-.06c0-.34-.12-.55-.45-.5s-.65.17-1,.25-.43.25-.68.19v-.11l.1-.18a5,5,0,0,0,.92-2.32,5.25,5.25,0,0,0-1.47-4.91,2.13,2.13,0,0,1-.22-.27c.26-.33.51-.64.73-1s0-.49-.29-.48-.72.06-1.08.09a2.38,2.38,0,0,1-.92,0,1.4,1.4,0,0,0-.13-.2c-.38-.7-.39-.71-1.1-.39a1.16,1.16,0,0,1-1.29,0,1,1,0,0,0-.76-.19c-.26,0-.34.25-.47.41a.42.42,0,0,1-.52.14l-.6-.27a3.93,3.93,0,0,0-.54-.2.35.35,0,0,0-.42.44,2.83,2.83,0,0,0,.14.41,1.38,1.38,0,0,1,.07.81c-.13.1-.28.21-.45.32A4.32,4.32,0,0,0,299,84.66a6.83,6.83,0,0,0-.23,1.34,5.15,5.15,0,0,0,2.85,5.26c.45.23.93.42,1.4.61a.75.75,0,0,1,.44.36,7.54,7.54,0,0,1,.63,1.73l-.16,0C303.82,93.84,303.72,93.76,303.64,93.67Zm2.45-12.84c.13.2.23.35.32.52a.54.54,0,0,0,.57.25l1-.13c.1.28-.14.37-.21.53a.41.41,0,0,0,.06.53,2.81,2.81,0,0,0,.31.29,4.37,4.37,0,0,1,1.48,3.34,5.9,5.9,0,0,1-.28,1.91,4.41,4.41,0,0,1-3.64,3s-.09,0-.17-.06l.35-.53a10,10,0,0,0,1.21-2.13,7.1,7.1,0,0,0,.55-2.8,4.53,4.53,0,0,0-.78-2.58c-.31-.48-.71-.92-1.07-1.37l-.46-.51Zm.82,10.77a2.67,2.67,0,0,0-.85,1.39c-.19-.36-.4-.72-.62-1.11.43-.11.82-.22,1.22-.31C306.69,91.55,306.74,91.57,306.91,91.6Zm-3.17-10.22a4,4,0,0,0-2.13,2.77,7.27,7.27,0,0,0,.08,3.5,11.41,11.41,0,0,0,1.21,2.91c.09.17.17.35.25.51v.07l-.06,0c-2.63-.85-3.61-2.48-3.69-4.56a5.43,5.43,0,0,1,.33-2.11,3.59,3.59,0,0,1,1.46-1.84l.3-.2a.9.9,0,0,0,.54-1.14v-.14l0-.09a.54.54,0,0,1,.18,0,1,1,0,0,0,1.43-.22l.21-.17c.22.07.45.09.52.36C304.18,81.19,304,81.27,303.74,81.38Zm.63,11.32c-.09-.23-.18-.44-.27-.64.1-.15.18-.08.27,0a1.91,1.91,0,0,1,1.09,1.8c0,.22,0,.44.06.66a.31.31,0,0,0,.29.28.56.56,0,0,0,.38-.12.68.68,0,0,0,.23-.36c.16-.46.31-.9.43-1.37a1.2,1.2,0,0,1,.24-.51,7.11,7.11,0,0,1,3.13-2.05,1.25,1.25,0,0,1,.24,0,2.26,2.26,0,0,1,0,.29,9.5,9.5,0,0,1-1.15,2.71,5,5,0,0,1-2.59,2.11l-.78.3a1.94,1.94,0,0,0,0,1.19,12.86,12.86,0,0,1,.11,3.16c0,.21,0,.43-.18.6a3.23,3.23,0,0,1-.88-.53c0-.22.05-.42.08-.63a7.13,7.13,0,0,0,.09-2.16c0-.51-.21-.68-.74-.82l-.85-.21a3.77,3.77,0,0,1-2.41-1.74q-.64-1.09-1.26-2.19a2.12,2.12,0,0,1-.11-.29c.12-.14.21-.05.29,0l1.24.61a7.18,7.18,0,0,1,3.07,3l.08.12c.08,0,.18.12.24.11a.45.45,0,0,0,.27-.21,1.82,1.82,0,0,0,0-.57A7.83,7.83,0,0,0,304.37,92.7Z" transform="translate(-18.99 -17.42)"/><path class="cls-1" d="M296.77,115.27a1.6,1.6,0,0,0,.58.09,1.65,1.65,0,0,1,.42.13c0,.3-.1.56-.16.82a28.52,28.52,0,0,0-.6,4.79.86.86,0,0,0,.55.92,9.58,9.58,0,0,0,2.95,1l.73.15c0,.24,0,.43-.05.62-.11.68-.21,1.36-.33,2a.78.78,0,0,0,.15.69l2,2.53a.65.65,0,0,0,1.15-.06c.48-.72,1-1.39,1.5-2.09s.55-.61.4-1.48l0-.07a5.22,5.22,0,0,1-.07-.57c0-.18-.1-.38,0-.56l2-.14c.41.53.79,1,1.17,1.55a1.14,1.14,0,0,0,.85.52c.42,0,.82.14,1.25.18a4.7,4.7,0,0,0,2.24-.43,1.4,1.4,0,0,0,.59-.54.34.34,0,0,0-.07-.46,2.3,2.3,0,0,0-.34-.28c-.34-.24-.68-.49-1-.72a2.09,2.09,0,0,1-1.05-2c0-.56.05-1.13.07-1.69a12.19,12.19,0,0,0-.14-2.56c-.37-2.11-.9-4.19-1.43-6.28a8.23,8.23,0,0,0-.54-1.43,3.47,3.47,0,0,0-2.5-2,8.25,8.25,0,0,0-3.17-.08,11,11,0,0,0-3.7,1.29,34.21,34.21,0,0,0-3.16,2.06,1.34,1.34,0,0,0-.62,1.16c0,.78,0,1.57-.1,2.34A.6.6,0,0,0,296.77,115.27Zm4.54,7.31a7.58,7.58,0,0,1-3.3-1.18l.58-.15h0a6.41,6.41,0,0,0,2.77.85C301.34,122.28,301.33,122.49,301.31,122.58Zm2,5.72c-.53-.64-1-1.3-1.58-2a.74.74,0,0,1-.19-.67,19.18,19.18,0,0,0,.36-4.73c0-.06,0-.13.07-.28.51,0,1-.07,1.5-.07,0,1.28,0,6.19,0,7.86A.81.81,0,0,1,303.34,128.3Zm2.54-4.91c0-.06-.09-.27-.12-.37a2.51,2.51,0,0,0,1.8-.1,3.58,3.58,0,0,1,.13.36A2,2,0,0,1,305.88,123.39Zm-8.76-11.33a1.47,1.47,0,0,1,.3-.31,23.09,23.09,0,0,1,3.4-2.22,10.58,10.58,0,0,1,3.89-1.17,8,8,0,0,1,2.29.11,2.52,2.52,0,0,1,1.93,1.44,8.22,8.22,0,0,1,.62,1.65c.45,1.88.86,3.75,1.27,5.64a12.34,12.34,0,0,1,.2,3.64,8.79,8.79,0,0,0,0,1.54,2.33,2.33,0,0,0,1.05,1.84l1,.69a2.19,2.19,0,0,1,.3.27,2.57,2.57,0,0,1-1.22.41,5.45,5.45,0,0,1-1.84-.12,1.07,1.07,0,0,1-.56-.33,8.49,8.49,0,0,1-1.71-3.06,1.43,1.43,0,0,1-.06-.5.63.63,0,0,0-.39-.65,9.56,9.56,0,0,0-1.34-.62,9,9,0,0,0-3.6-.35,30.3,30.3,0,0,0-4.25.66l-.61.1a4,4,0,0,1,0-.46,25.72,25.72,0,0,1,.75-4.7c.09-.34.1-.44,0-.55.91,0,1.83-1.25,2.63-1.74a8.47,8.47,0,0,1,4.77-1.38,3.86,3.86,0,0,1,1,.16,4.37,4.37,0,0,1,1,1,8,8,0,0,1,1.2,2.5,15.65,15.65,0,0,1,.58,3.46.84.84,0,0,0,.11.44l.09-.21a11.47,11.47,0,0,0-.46-4.62,6.49,6.49,0,0,0-.77-1.67,4.82,4.82,0,0,0-5-2.22,8.26,8.26,0,0,0-3.11,1.16,15.19,15.19,0,0,0-2.63,2c-.17.17-.35.33-.64.6Z" transform="translate(-18.99 -17.42)"/><path class="cls-1" d="M309.84,138.81h.42l-.06-.2a4,4,0,0,1-.13-1,4.06,4.06,0,0,1,.13-1l.06-.19h-2.82l0-.19h1.39l0-.2a2.06,2.06,0,0,1-.14-.84,3.23,3.23,0,0,1,.17-1l0-.17h-1.65l1.79-.16-1.77-.6-.17.76h-1.39l0,.1a3.85,3.85,0,0,0-.16,1.07,2.87,2.87,0,0,0,.13.93l0,.11h.91l0,.19h-2l0-.2h1.08l-.05-.19a2.28,2.28,0,0,1-.11-.84,3.54,3.54,0,0,1,.16-1l.05-.17h-1.35l1.78-.16-1.73-.6-.2.76h-1.68l0,.1a3.5,3.5,0,0,0-.15,1.07,2.56,2.56,0,0,0,.1.92l0,.11h1.21l0,.2h-3.05l0,.12a3,3,0,0,0-.17,1.05,2.85,2.85,0,0,0,0,.49h-3.09l.64,1.56h.8l1,1.36h10.11l2-2H310Zm-8.35.38-.39-.38h.48Zm1.26,0H302l.08-.38h.78Zm.28-1.1h-1.91a2.23,2.23,0,0,1-.09-.63,1.71,1.71,0,0,1,.09-.59H303a2.48,2.48,0,0,0-.07.59A3.06,3.06,0,0,0,303,138.09Zm-.11-2.4a2.13,2.13,0,0,1-.08-.61,2.44,2.44,0,0,1,.08-.62h1.92a2.35,2.35,0,0,0-.07.62,2.32,2.32,0,0,0,.07.61Zm1.43,3.5h-.62l.07-.38h.59Zm1.69,0h-.71l.07-.38h.7Zm.22-1.22,0,.12h-1.93c0-.12-.05-.33-.07-.54v-.09l0-.25a1,1,0,0,1,.08-.34h1.9a2,2,0,0,0-.07.59A1.7,1.7,0,0,0,306.26,138Zm1.31-1.1h1.92a2,2,0,0,0-.07.59,2.49,2.49,0,0,0,.07.63h-1.92a1.72,1.72,0,0,1-.08-.63A2.56,2.56,0,0,1,307.57,136.87Zm-1.43-1.18a2.13,2.13,0,0,1-.08-.61,2.05,2.05,0,0,1,.08-.62H308a3,3,0,0,0-.06.62,3,3,0,0,0,.06.61Zm1.53,3.5H307l.09-.38h.64Zm1,0,.06-.38h.7l.23.38Z" transform="translate(-18.99 -17.42)"/><path class="cls-1" d="M308.8,153.23a3.79,3.79,0,0,1-.11-.88,3.52,3.52,0,0,1,.11-.84l.08-.37H308v-1h-1.14v1h-1.27v-1H304.4v1h-1.28v-1H302v1h-.64l-.06.24a3.81,3.81,0,0,0-.14.92l-1.09,1.08h-1.79l1.1,1.81,1.55,1h7.39l1.87-1.19.41-1.58h-1.76Zm-5.71-.31h-1c0-.1,0-.55,0-.69a1.62,1.62,0,0,1,0-.35h1a3.06,3.06,0,0,0,0,.35C303.06,152.35,303.08,152.81,303.09,152.92Zm2.38,0h-1c0-.1,0-.55,0-.69a1.53,1.53,0,0,1,0-.35h1c0,.1,0,.21,0,.35S305.45,152.81,305.47,152.92Zm2.36,0h-1c0-.1,0-.55,0-.69a1.62,1.62,0,0,1,0-.35h1a1.83,1.83,0,0,0,0,.35A5.25,5.25,0,0,0,307.83,152.92Z" transform="translate(-18.99 -17.42)"/><path class="cls-1" d="M270.57,72.8l-.15-.4c-.6.2-1.19.42-1.78.64-.39-1-.8-2-1.21-2.93l-.5.2c.48,1.1.95,2.2,1.41,3.31C269.07,73.33,269.81,73.06,270.57,72.8Z" transform="translate(-18.99 -17.42)"/><path class="cls-1" d="M271.63,72.46c-.38-1.14-.77-2.28-1.17-3.41l-.52.17c.41,1.12.81,2.26,1.2,3.39Z" transform="translate(-18.99 -17.42)"/><path class="cls-1" d="M273.91,71.79a1.29,1.29,0,0,0,.95-.66,1,1,0,0,0,.07-.66.84.84,0,0,0-.42-.57,1.72,1.72,0,0,0-.49-.13,1,1,0,0,0,.24-.27.71.71,0,0,0,.06-.59.85.85,0,0,0-.3-.46,1.24,1.24,0,0,0-1.08-.12l-1.66.47c.39,1.13.76,2.28,1.12,3.42Zm-2-2.75.93-.26a1.7,1.7,0,0,1,.53-.07.53.53,0,0,1,.29.92,1.19,1.19,0,0,1-.48.21l-.93.25C272.15,69.74,272,69.39,271.92,69Zm1.46,1.16a1.32,1.32,0,0,1,.53-.06.54.54,0,0,1,.51.43.57.57,0,0,1,0,.41.74.74,0,0,1-.57.41c-.36.1-.72.19-1.07.3-.12-.41-.25-.81-.37-1.21Z" transform="translate(-18.99 -17.42)"/><path class="cls-1" d="M278.56,70.82c0-.14-.05-.28-.07-.42-.77.12-1.52.26-2.27.42-.09-.4-.19-.79-.28-1.19.7-.14,1.41-.28,2.11-.39,0-.14-.05-.28-.07-.41-.72.12-1.43.25-2.14.4-.08-.36-.17-.71-.25-1.07.78-.16,1.56-.31,2.35-.43,0-.15-.05-.29-.08-.44-1,.16-1.94.35-2.9.56.3,1.16.59,2.32.86,3.49C276.73,71.14,277.64,71,278.56,70.82Z" transform="translate(-18.99 -17.42)"/><path class="cls-1" d="M329.91,68a.78.78,0,0,0-.47-.86,1.92,1.92,0,0,0-.72-.16l-1.82-.07q-.06,1.74-.09,3.48l.49,0c0-.5,0-1,.05-1.5l1.16,0a1.25,1.25,0,0,1,.45.1.46.46,0,0,1,.23.47c0,.2,0,.39,0,.58a1.87,1.87,0,0,0,0,.28l0,.12.6,0v-.07a.29.29,0,0,1-.14-.23.88.88,0,0,1,0-.29c0-.16,0-.32,0-.47a.58.58,0,0,0-.39-.69.9.9,0,0,0,.41-.3A.78.78,0,0,0,329.91,68Zm-.78.47a1,1,0,0,1-.58.09l-1.18,0c0-.4,0-.8.05-1.19l1.28,0a1.08,1.08,0,0,1,.42.1.5.5,0,0,1,.27.52A.57.57,0,0,1,329.13,68.47Z" transform="translate(-18.99 -17.42)"/><path class="cls-1" d="M332.37,67.32c-.53-.07-1.05-.14-1.57-.18-.14,1.15-.27,2.31-.39,3.45l1.45.17a1.4,1.4,0,0,0,1.43-.6,2.13,2.13,0,0,0,.39-1,1.63,1.63,0,0,0-.17-1.21A1.42,1.42,0,0,0,332.37,67.32Zm.79,1.89a2,2,0,0,1-.1.36,1.69,1.69,0,0,1-.29.5,1,1,0,0,1-.53.28,1.21,1.21,0,0,1-.42,0l-.86-.1c.09-.88.21-1.76.31-2.65l.92.11a1.05,1.05,0,0,1,.86.48A1.55,1.55,0,0,1,333.16,69.21Z" transform="translate(-18.99 -17.42)"/><path class="cls-1" d="M335.12,68.19c.75.14,1.5.3,2.24.48,0-.14.08-.27.11-.41-.91-.22-1.84-.42-2.77-.58-.22,1.14-.45,2.28-.66,3.42.87.15,1.74.33,2.6.54l.1-.4c-.71-.17-1.43-.33-2.15-.47.07-.38.15-.77.23-1.15.68.13,1.35.27,2,.43,0-.13.07-.26.1-.39-.67-.16-1.35-.31-2-.44C335,68.88,335.05,68.53,335.12,68.19Z" transform="translate(-18.99 -17.42)"/><path class="cls-1" d="M339.76,71.82c-.29-1.08-.62-2.15-1-3.23l-.6-.15c-.31,1.11-.62,2.23-.92,3.36l.45.11c.25-.9.51-1.81.77-2.71.37,1.07.7,2.15,1,3.23l.52.16c.37-1.1.75-2.2,1.14-3.29l-.47-.16C340.35,70,340.05,70.93,339.76,71.82Z" transform="translate(-18.99 -17.42)"/><path class="cls-1" d="M320.05,67.28c-.32.6-.62,1.2-.91,1.81-.44-.5-.9-1-1.36-1.48l-.62.11c.61.59,1.2,1.19,1.78,1.81l.21,1.38.49-.07c-.06-.46-.13-.93-.19-1.39.39-.75.79-1.5,1.22-2.25Z" transform="translate(-18.99 -17.42)"/><path class="cls-1" d="M324.27,66.84a1.74,1.74,0,0,0-1.48.73,1.9,1.9,0,0,0-.32,1.23,2,2,0,0,0,.53,1.26,1.78,1.78,0,0,0,1.36.46,1.72,1.72,0,0,0,1.38-.64,2,2,0,0,0,.44-1.29,1.78,1.78,0,0,0-.37-1.19A1.84,1.84,0,0,0,324.27,66.84Zm1.08,2.79a1.08,1.08,0,0,1-1,.46,1.21,1.21,0,0,1-1-.34,1.55,1.55,0,0,1-.37-1,1.45,1.45,0,0,1,.32-1.11,1.39,1.39,0,0,1,1-.42,1.22,1.22,0,0,1,1,.35,1.31,1.31,0,0,1,.36,1A1.86,1.86,0,0,1,325.35,69.63Z" transform="translate(-18.99 -17.42)"/><path class="cls-1" d="M282.42,70.27a.29.29,0,0,1-.19-.2,1.19,1.19,0,0,1-.06-.3c0-.16-.06-.32-.08-.48a.78.78,0,0,0-.17-.44,1,1,0,0,0-.38-.19,1,1,0,0,0,.37-.36.88.88,0,0,0,.09-.55.86.86,0,0,0-.67-.78,1.83,1.83,0,0,0-.79,0c-.62.07-1.25.15-1.87.24.22,1.18.43,2.36.62,3.54l.51-.07-.24-1.52c.4-.06.8-.1,1.2-.15a1.53,1.53,0,0,1,.49,0,.54.54,0,0,1,.33.44c0,.21.07.4.11.6a1.61,1.61,0,0,0,.05.28l.06.11.63,0Zm-1.12-1.91a1.05,1.05,0,0,1-.58.2l-1.23.16c-.06-.41-.13-.81-.2-1.22l1.32-.16a1.3,1.3,0,0,1,.46,0,.54.54,0,0,1,.38.49A.5.5,0,0,1,281.3,68.36Z" transform="translate(-18.99 -17.42)"/><path class="cls-1" d="M283.67,67.1c.09,1.05.17,2.11.25,3.16l.52,0c-.06-1.06-.13-2.11-.21-3.17l1.38,0c0-.14,0-.28,0-.42-1.12,0-2.23.07-3.34.15,0,.15,0,.29.05.43C282.76,67.15,283.21,67.12,283.67,67.1Z" transform="translate(-18.99 -17.42)"/><path class="cls-1" d="M286,70.2l.39-1.08,1.58,0c.13.36.25.73.38,1.09l.58,0c-.44-1.22-.92-2.43-1.45-3.64h-.63c-.48,1.19-.94,2.39-1.39,3.6Zm1.16-3.06c.22.53.43,1.06.63,1.6l-1.25,0C286.77,68.19,287,67.66,287.19,67.14Z" transform="translate(-18.99 -17.42)"/><path class="cls-1" d="M292.54,69.74a2.25,2.25,0,0,0,.34-1,1.74,1.74,0,0,0-.32-1.26,1.72,1.72,0,0,0-1.29-.66l-1.7-.13c0,1.21-.06,2.41-.11,3.6.53,0,1.05.07,1.58.12A1.5,1.5,0,0,0,292.54,69.74ZM290,69.9c.05-.92.09-1.84.11-2.76.34,0,.67,0,1,.08a1.17,1.17,0,0,1,1,.46,1.57,1.57,0,0,1,.23,1.07,1.84,1.84,0,0,1-.07.37,1.4,1.4,0,0,1-.28.53,1,1,0,0,1-.54.32,2.14,2.14,0,0,1-.45,0Z" transform="translate(-18.99 -17.42)"/><path class="cls-1" d="M283.6,38.06a1.28,1.28,0,0,1-.11-1.31,1,1,0,0,1,.23-.31c.08-.08.21-.13.28-.21a.89.89,0,0,1-1.38-.25,1,1,0,0,1,.61-1.33,7.28,7.28,0,0,0-1.21.44,1.29,1.29,0,0,1-1.24-.08,1,1,0,0,1-.23-1.17,3.17,3.17,0,0,1,.74-1c-.67.16-1.27.81-1.92.6s-.73-1.16-.38-1.75,1-1,1.35-1.57a15.37,15.37,0,0,1-3.16,1.1,1.3,1.3,0,0,1-1.13-.1.54.54,0,0,1,0-.73l-1.53.51a2,2,0,0,1-1.09.13c-.36-.11-.64-.55-.44-.86a2.87,2.87,0,0,1-1.77.6,1,1,0,0,1-.85-.55c-.23-.39-.06-.58.28-.85a1.56,1.56,0,0,0-1,1.68,1.17,1.17,0,0,0,1.25.72,3.26,3.26,0,0,0,1.44-.6,1.14,1.14,0,0,0,.77,1,10.32,10.32,0,0,0-2.65,3.36,2.73,2.73,0,0,0-.33,1.15,1.13,1.13,0,0,0,.53,1,.75.75,0,0,0,1-.32A1.1,1.1,0,0,0,272,38.5a1.14,1.14,0,0,0,1.25.06,2.42,2.42,0,0,0,.18,1.46,1.12,1.12,0,0,0,1.25.6c-.72.22,1.81,2.69,1.54.87-.09-.63-.59-1-.51-1.71a5.36,5.36,0,0,1,.85-2l1.26-2.13A21.65,21.65,0,0,0,275,40.13c-.72-1-.19-2.41.41-3.5s1.15-2,1.79-2.91c-1.55.94-2.06,2.91-3.22,4.31-.16.2-.43.4-.66.29A7.86,7.86,0,0,1,275.16,33a18.27,18.27,0,0,0-2.65,3,1.8,1.8,0,0,1-1,.77,3.08,3.08,0,0,1,.62-2.66,16.27,16.27,0,0,0,1.26-1.92,1.39,1.39,0,0,0,.35,0,3.88,3.88,0,0,0,1.81-.74c0,.34.47.43.81.42l2-.05a1.48,1.48,0,0,0-.3,1.76,1.52,1.52,0,0,0,1.67.69,1.22,1.22,0,0,0,.65,1.85,1.76,1.76,0,0,0,1.79-.62,1.53,1.53,0,0,0-.17.27,2.36,2.36,0,0,0-.12.28,1.24,1.24,0,0,0-.08.63,1.37,1.37,0,0,0,.21.53.93.93,0,0,0,.4.33.7.7,0,0,0,.25,0,.81.81,0,0,0,.54-.21c-.11.19-.23.39-.33.59a2,2,0,0,0-.21.64,1,1,0,0,0,.87,1,1.27,1.27,0,0,0,.83-.15A3.12,3.12,0,0,0,285.5,38,1.28,1.28,0,0,1,283.6,38.06Z" transform="translate(-18.99 -17.42)"/><path class="cls-1" d="M334.87,26.33a.43.43,0,0,0,.16,0,.65.65,0,0,0,.45-.51.82.82,0,0,0-.14-.52,1.83,1.83,0,0,0-.49-.51l-.46-.17a1.81,1.81,0,0,1-.57-.16.92.92,0,0,1,.44.45.46.46,0,0,1-.16.57.77.77,0,0,1-.54,0l-1.29-.25a5.73,5.73,0,0,0,1.72,1A1.67,1.67,0,0,0,334.87,26.33Z" transform="translate(-18.99 -17.42)"/><path class="cls-1" d="M326.64,39.55c.09.23.16.46.23.7q0-.42-.12-.84A.76.76,0,0,1,326.64,39.55Z" transform="translate(-18.99 -17.42)"/><polygon class="cls-1" points="305.96 22.11 305.96 22.12 305.97 22.12 305.96 22.11"/><path class="cls-1" d="M247.87,41.78c.93-.32,2,.09,2.93-.26a3.65,3.65,0,0,0,1.49-1.35l2.33-3.1A20.33,20.33,0,0,1,251,39.83a1.92,1.92,0,0,1-1.07.35c-.38,0-.75-.39-.65-.75a1,1,0,0,1,.3-.4l1.07-1a68,68,0,0,0-8.5,6.91c-1.39,1.28-4.2,3.5-4.16,5.63,1.28-.35,2.77-2.39,3.75-3.31q2.45-2.28,4.88-4.57A4,4,0,0,1,247.87,41.78Z" transform="translate(-18.99 -17.42)"/><path class="cls-1" d="M255.39,35.41a3.67,3.67,0,0,1,1.17.3,4,4,0,0,0,3.1-.52,11.78,11.78,0,0,0,2.4-2.12,16.14,16.14,0,0,1-2.81,1.5,2.33,2.33,0,0,1-1,.24.85.85,0,0,1-.78-.56,1,1,0,0,1,.15-.73,3.07,3.07,0,0,1,1.39-1.3c-1.58.74-6.08,2.57-6.32,4.48a5.11,5.11,0,0,0,1.71-.92A2.18,2.18,0,0,1,255.39,35.41Z" transform="translate(-18.99 -17.42)"/><path class="cls-1" d="M251.74,48.6a3.07,3.07,0,0,1,.38-.56,2,2,0,0,1-.47.33,3.53,3.53,0,0,1-.5.28,5,5,0,0,1-1.63.47c-.28,0-.55,0-.83,0a1.58,1.58,0,0,1-.86-.13.7.7,0,0,1-.3-.78.8.8,0,0,1,.07-.2,2.29,2.29,0,0,1,.61-.89,9.3,9.3,0,0,1-3.31,1.39.71.71,0,0,1-.54,0c-.34-.2-.18-.71,0-1a19.82,19.82,0,0,1,3.47-4A20.38,20.38,0,0,0,244,46.74c-.47.51-1,1.18-.72,1.84a1.43,1.43,0,0,0,1.49.83,4.24,4.24,0,0,0,1.7-.64l.85-.47a3,3,0,0,0-.29,1.34.87.87,0,0,0,.56.84,1.48,1.48,0,0,0,.78,0,7.3,7.3,0,0,0,3.33-1.81A.08.08,0,0,0,251.74,48.6Z" transform="translate(-18.99 -17.42)"/><path class="cls-1" d="M251.67,49a.41.41,0,0,1,0-.11,1.27,1.27,0,0,0-.11,1.19,1.16,1.16,0,0,0,1.15.52,2.69,2.69,0,0,0,1.22-.54,7.87,7.87,0,0,0,2.52-3,19,19,0,0,1-3.87,2.14C252.25,49.26,251.74,49.3,251.67,49Z" transform="translate(-18.99 -17.42)"/><path class="cls-1" d="M253.7,46.4A17.31,17.31,0,0,0,256.36,44c-1.15-.34-2.74,1.36-3.5,2.08a1.69,1.69,0,0,0-.66,1.21A4,4,0,0,0,253.7,46.4Z" transform="translate(-18.99 -17.42)"/><path class="cls-1" d="M260.22,45.51c-.19-1.32-2.74,1.22-3.05,1.52s-.55.63-.39,1C257.4,47.83,260.32,46.23,260.22,45.51Z" transform="translate(-18.99 -17.42)"/><path class="cls-1" d="M326.64,39.55c.09.23.16.46.23.7q0-.42-.12-.84A.76.76,0,0,1,326.64,39.55Z" transform="translate(-18.99 -17.42)"/><polygon class="cls-1" points="305.96 22.11 305.96 22.12 305.97 22.12 305.96 22.11"/><path class="cls-1" d="M263.61,29.88a.8.8,0,0,0,.61.07,2.57,2.57,0,0,0,1.28-.46c-.49-.55-.29-1.08.19-1.56a10.7,10.7,0,0,1,3.69-2.42c-.2.09-.43-.12-.44-.33a1,1,0,0,1,.27-.58A7,7,0,0,1,273,22.28s.22.12.27.14a1.68,1.68,0,0,0,.32.09,2.09,2.09,0,0,0,.66,0c.34-.06,1-.27,1.12-.62-.06,0-.14-.09-.16-.17s.08-.23.17-.32c.27-.27.57-.51.87-.77,0,0,.09-.09.08-.15a4.21,4.21,0,0,0-.83.3c-.11.07-1.25.52-1.51.62-1,.39-2.13.7-3.18,1.11a8.73,8.73,0,0,0-2.8,1.66,1.33,1.33,0,0,0-.45.65.54.54,0,0,0,.33.64,8.09,8.09,0,0,0-4.27,3.24C263.42,29.08,263.25,29.64,263.61,29.88Z" transform="translate(-18.99 -17.42)"/><path class="cls-1" d="M260.75,37.64a4.29,4.29,0,0,0,1.17-.59c.1,0,.23-.11.33,0s.09.19.1.3a1.16,1.16,0,0,0,1.09.93,2.34,2.34,0,0,0,1.45-.48c0,.1,0,.19,0,.29a1.26,1.26,0,0,0,1,.51,3.91,3.91,0,0,0,1.17-.22,2.17,2.17,0,0,0,1.28-.75,1.18,1.18,0,0,1-.9.46.77.77,0,0,1-.55-.89,2.1,2.1,0,0,1,.56-1,9,9,0,0,1-2.13.93,1.93,1.93,0,0,1-.95.07.7.7,0,0,1-.56-.68.87.87,0,0,1,.25-.46,2.17,2.17,0,0,1,.66-.5l-1.84.75a3.4,3.4,0,0,1-1.42.34,1.11,1.11,0,0,1-1.07-.84,1,1,0,0,1,.1-.56l-.24.16a2.38,2.38,0,0,0-.77.87,1.06,1.06,0,0,0,.08,1.11A1.18,1.18,0,0,0,260.75,37.64Z" transform="translate(-18.99 -17.42)"/><path class="cls-1" d="M273.45,23.65a1.46,1.46,0,0,1,.57-.73,2.79,2.79,0,0,0-1.6,1.43c0,.09-.08.22,0,.29a.24.24,0,0,0,.16.07,4.12,4.12,0,0,0,1.64,0,.74.74,0,0,1-.77-1Z" transform="translate(-18.99 -17.42)"/><path class="cls-1" d="M359.61,40.33a1.86,1.86,0,0,1-1.07-.36,19.82,19.82,0,0,1-3.63-2.75l2.33,3.09a3.74,3.74,0,0,0,1.49,1.36c.92.35,2-.07,2.93.26a3.81,3.81,0,0,1,1.26.89l4.88,4.57c1,.91,2.47,3,3.75,3.31,0-2.14-2.77-4.35-4.16-5.64a67.08,67.08,0,0,0-8.5-6.9l1.07,1a1.06,1.06,0,0,1,.3.4C360.36,39.93,360,40.3,359.61,40.33Z" transform="translate(-18.99 -17.42)"/><path class="cls-1" d="M349.88,35.33a4,4,0,0,0,3.09.53,3.49,3.49,0,0,1,1.17-.3,2.14,2.14,0,0,1,1,.37c.54.31,1.13.86,1.71.91-.24-1.9-4.73-3.74-6.32-4.48a3.09,3.09,0,0,1,1.39,1.31,1,1,0,0,1,.15.72.84.84,0,0,1-.78.56,2.36,2.36,0,0,1-1-.23,16.85,16.85,0,0,1-2.81-1.5A11.52,11.52,0,0,0,349.88,35.33Z" transform="translate(-18.99 -17.42)"/><path class="cls-1" d="M345.49,36.16a.89.89,0,0,1,.24.47.72.72,0,0,1-.56.68,1.82,1.82,0,0,1-.95-.08,8.25,8.25,0,0,1-2.13-.93,2.18,2.18,0,0,1,.56,1,.75.75,0,0,1-.55.88,1.15,1.15,0,0,1-.9-.46,2.12,2.12,0,0,0,1.28.75,3.62,3.62,0,0,0,1.17.22,1,1,0,0,0,1-.62c.11-.16.14-.08.33,0a2.17,2.17,0,0,0,1.14.28,1.15,1.15,0,0,0,1.08-.92c0-.11,0-.24.11-.3s.22,0,.32.05a4.76,4.76,0,0,0,1.17.59,1.17,1.17,0,0,0,1.2-.3,1.08,1.08,0,0,0,.09-1.11,2.59,2.59,0,0,0-.78-.87l-.24-.16a1,1,0,0,1,.1.56,1.1,1.1,0,0,1-1.06.84,3.27,3.27,0,0,1-1.43-.34l-2.14-.86A2.2,2.2,0,0,1,345.49,36.16Z" transform="translate(-18.99 -17.42)"/><path class="cls-1" d="M364.74,49.55a1.45,1.45,0,0,0,1.5-.82c.22-.66-.26-1.33-.73-1.84a20.81,20.81,0,0,0-3.84-3.29,20.09,20.09,0,0,1,3.47,4c.21.33.37.85,0,1a.83.83,0,0,1-.54,0,9.42,9.42,0,0,1-3.27-1.36,2,2,0,0,1,.47.58c.1.16.2.33.29.5l.91.5A4.1,4.1,0,0,0,364.74,49.55Z" transform="translate(-18.99 -17.42)"/><path class="cls-1" d="M356.09,42.32l-.19-.1a4.44,4.44,0,0,0,.62.05.87.87,0,0,0,.48-.1c.36-.23.22-.77,0-1.14a9.41,9.41,0,0,0-1.53-1.8c.38.42.91,1.19.46,1.59a.78.78,0,0,1-.5.15,5.08,5.08,0,0,1-2.75-.67.85.85,0,0,1-.18,1.07,2,2,0,0,1-1.72.06,15.21,15.21,0,0,1-3.94-1.83,8.41,8.41,0,0,1,2,1.75,1.06,1.06,0,0,1,.3.65c0,.59-.85.71-1.43.63a15,15,0,0,1-4.21-1.31,5.84,5.84,0,0,1,2,1.86.85.85,0,0,1,.19.56c-.07.45-.7.5-1.16.42a16.09,16.09,0,0,1-4.37-1.47,1.44,1.44,0,0,1-1.47,1.6,1.56,1.56,0,0,0,1.44.1,2.33,2.33,0,0,1,.66-.26,1.48,1.48,0,0,1,.82.36,5.3,5.3,0,0,0,3.93.83,1.15,1.15,0,0,0,.88-.5c.39-.73-.75-1.34-1.07-2.11a13.67,13.67,0,0,0,2.5.78,2.35,2.35,0,0,0,1.46-.05.88.88,0,0,0,.44-1.22,4.19,4.19,0,0,0,2.38,1c.87,0,1.74-.89,1.43-1.69a6.12,6.12,0,0,0,1.91.67.34.34,0,0,0-.15.07c.43-.36,4.22,4.19,5.52,3.84C360.28,44.41,357.59,43.15,356.09,42.32Z" transform="translate(-18.99 -17.42)"/><path class="cls-1" d="M353.17,44.17a17.37,17.37,0,0,0,2.66,2.38,3.89,3.89,0,0,0,1.5.91,1.63,1.63,0,0,0-.66-1.2C355.91,45.54,354.32,43.83,353.17,44.17Z" transform="translate(-18.99 -17.42)"/><path class="cls-1" d="M349.31,45.65c-.1.73,2.82,2.32,3.44,2.48.16-.33-.12-.7-.39-1S349.5,44.33,349.31,45.65Z" transform="translate(-18.99 -17.42)"/><path class="cls-1" d="M337,24.86a.36.36,0,0,0,.17-.07c.07-.08,0-.2,0-.3a2.74,2.74,0,0,0-1.6-1.42,1.41,1.41,0,0,1,.57.73.83.83,0,0,1-.22.86.81.81,0,0,1-.55.16A4.12,4.12,0,0,0,337,24.86Z" transform="translate(-18.99 -17.42)"/><polygon class="cls-1" points="305.96 22.11 305.96 22.12 305.97 22.12 305.96 22.11"/><path class="cls-1" d="M260.75,37.64a4.29,4.29,0,0,0,1.17-.59c.1,0,.23-.11.33,0s.09.19.1.3a1.16,1.16,0,0,0,1.09.93,2.34,2.34,0,0,0,1.45-.48c0,.1,0,.19,0,.29a1.26,1.26,0,0,0,1,.51,3.91,3.91,0,0,0,1.17-.22,2.17,2.17,0,0,0,1.28-.75,1.18,1.18,0,0,1-.9.46.77.77,0,0,1-.55-.89,2.1,2.1,0,0,1,.56-1,9,9,0,0,1-2.13.93,1.93,1.93,0,0,1-.95.07.7.7,0,0,1-.56-.68.87.87,0,0,1,.25-.46,2.17,2.17,0,0,1,.66-.5l-1.84.75a3.4,3.4,0,0,1-1.42.34,1.11,1.11,0,0,1-1.07-.84,1,1,0,0,1,.1-.56l-.24.16a2.38,2.38,0,0,0-.77.87,1.06,1.06,0,0,0,.08,1.11A1.18,1.18,0,0,0,260.75,37.64Z" transform="translate(-18.99 -17.42)"/><path class="cls-1" d="M273.45,23.65a1.46,1.46,0,0,1,.57-.73,2.79,2.79,0,0,0-1.6,1.43c0,.09-.08.22,0,.29a.24.24,0,0,0,.16.07,4.12,4.12,0,0,0,1.64,0,.74.74,0,0,1-.77-1Z" transform="translate(-18.99 -17.42)"/><path class="cls-1" d="M263.61,29.88a.8.8,0,0,0,.61.07,2.57,2.57,0,0,0,1.28-.46c-.49-.55-.29-1.08.19-1.56a10.7,10.7,0,0,1,3.69-2.42c-.2.09-.43-.12-.44-.33a1,1,0,0,1,.27-.58A7,7,0,0,1,273,22.28s.22.12.27.14a1.68,1.68,0,0,0,.32.09,2.09,2.09,0,0,0,.66,0c.34-.06,1-.27,1.12-.62-.06,0-.14-.09-.16-.17s.08-.23.17-.32c.27-.27.57-.51.87-.77,0,0,.09-.09.08-.15a4.21,4.21,0,0,0-.83.3c-.11.07-1.25.52-1.51.62-1,.39-2.13.7-3.18,1.11a8.73,8.73,0,0,0-2.8,1.66,1.33,1.33,0,0,0-.45.65.54.54,0,0,0,.33.64,8.09,8.09,0,0,0-4.27,3.24C263.42,29.08,263.25,29.64,263.61,29.88Z" transform="translate(-18.99 -17.42)"/><path class="cls-1" d="M283.71,27.62l.46-.35A2.32,2.32,0,0,0,283.71,27.62Z" transform="translate(-18.99 -17.42)"/><path class="cls-1" d="M285.57,34.91a1.52,1.52,0,0,0-.19.8.66.66,0,0,0,.51.6c-.37.56-.88,2.37.44,2.13h0c-.13-.55-.35-.81-.15-1.39a4.27,4.27,0,0,1,1.37-1.79c-.38.19-.69.64-1.11.54a.63.63,0,0,1-.43-.58,1.5,1.5,0,0,1,.21-.73,5.24,5.24,0,0,1,1.35-1.65A4.71,4.71,0,0,0,285.57,34.91Z" transform="translate(-18.99 -17.42)"/><path class="cls-1" d="M317.52,37.72c.76-.82.54-2.1.27-3.18a1.87,1.87,0,0,0,1-2,1.67,1.67,0,0,0-.44-.84c-.21-.22-.52-.22-.71-.49,0,0,0-.07,0-.08h0c.15,0,.28.08.43.1s.32,0,.37-.14a.3.3,0,0,0,0-.19,1.83,1.83,0,0,0-.07-.32,4.88,4.88,0,0,0-1-2.23q.3.33.63.63a1.24,1.24,0,0,0,.23.17.31.31,0,0,0,.28,0,.37.37,0,0,0,.17-.34,1.78,1.78,0,0,0-.22-.71,5.26,5.26,0,0,0-.44-.85c-.07-.11-.49-.83-.64-.79a.38.38,0,0,1,.36,0,2,2,0,0,0,1.15.36.25.25,0,0,0,.15,0c.06,0,.09-.07.13-.12a1.48,1.48,0,0,0,.22-.8,4,4,0,0,0-.86-2,2.46,2.46,0,0,0,1.68.53c.37,0,.87-.07.89-.43a.66.66,0,0,0-.15-.39,6.15,6.15,0,0,0-.78-.91.49.49,0,0,1,0,.17.91.91,0,0,1,0,.17.74.74,0,0,1-.22.37.71.71,0,0,1-.37.2,1.43,1.43,0,0,1-.46,0,4,4,0,0,1-1.37-.33,2,2,0,0,1,.83.79A2.43,2.43,0,0,1,319,25a1,1,0,0,1-.29.57.86.86,0,0,1-.4.28.7.7,0,0,1-.35,0c-.47-.14-.43-.32-.68-.65a.33.33,0,0,0-.41-.13,3.13,3.13,0,0,0,.65,1.86l.11.13a1.64,1.64,0,0,1,.47.74c0,.14,0,.32-.18.32a.26.26,0,0,1-.16-.07,2,2,0,0,1-.34-.47.47.47,0,0,0-.49-.24,5.63,5.63,0,0,0,.89,2.49.64.64,0,0,1,.1.48c-.13.41-.56-.19-.68.33s.24.84.52,1.18A2.13,2.13,0,0,1,318.4,33a.49.49,0,0,1-.28.51.39.39,0,0,1-.36-.1.91.91,0,0,1-.22-.33,6.2,6.2,0,0,1-.54-1.66c-.09-.57-.32-1.11-.44-1.68a13.65,13.65,0,0,1-.15-3.32,7.54,7.54,0,0,1,.52-3.09,5.26,5.26,0,0,1,2.36-2.28,1.73,1.73,0,0,1,.56-.28,6.33,6.33,0,0,0-1.15.23,4.31,4.31,0,0,0-2.89,3.08,2.5,2.5,0,0,0-.06,1,.43.43,0,0,0,0,.05,13.1,13.1,0,0,0-.1,1.87,12.08,12.08,0,0,0,.3,3c.26,1,.73,1.92,1,2.91a3.94,3.94,0,0,1-.13,3c-.35.63-2.59,1.6-2.44,2.22C314.62,39,317.1,38.17,317.52,37.72Z" transform="translate(-18.99 -17.42)"/><path class="cls-1" d="M276.27,22.78c-.28-.14-.33-.64-.06-.76a2.37,2.37,0,0,0-.79.36.79.79,0,0,0-.31.83c.14.39.64.52,1.06.52a4.16,4.16,0,0,0,3.08-1.41c0,.07-.1.12-.14.19a1,1,0,0,0-.1.95c.27.44.93.39,1.43.22a6.71,6.71,0,0,0,2.18-1.23,1.72,1.72,0,0,0-.37.69.64.64,0,0,0,.27.68.91.91,0,0,0,.49,0,3.74,3.74,0,0,0,2.33-1.23c-.5.21-1.3.47-1.74,0-.28-.28-.08-.83-.31-1.09-.6-.67-2.27,1-3.4.3a2.6,2.6,0,0,1,1-1.14h0a22.58,22.58,0,0,1-3.63,1.94A1.27,1.27,0,0,1,276.27,22.78Z" transform="translate(-18.99 -17.42)"/><path class="cls-1" d="M286.41,23.39a.56.56,0,0,0,.34.08,3.91,3.91,0,0,0,2.57-.93,1,1,0,0,1,.13-.34,2.65,2.65,0,0,1,1-.79l-1.76.85c-.4.19-.9.38-1.26.13a.83.83,0,0,1-.13-1.12,2.41,2.41,0,0,1,1-.77,5.08,5.08,0,0,0-1.5,1,1.79,1.79,0,0,0-.52,1.63A.5.5,0,0,0,286.41,23.39Z" transform="translate(-18.99 -17.42)"/><path class="cls-1" d="M291.69,22.21a2.09,2.09,0,0,1,.49,1.53,1,1,0,0,1-1.17.88.38.38,0,0,1-.25-.17.45.45,0,0,1,.05-.3,2.19,2.19,0,0,1,.92-1,4.32,4.32,0,0,1-1.36.34,1.16,1.16,0,0,1-.82-.18.75.75,0,0,1-.24-.76,6.8,6.8,0,0,0-.78.91.67.67,0,0,0-.15.38c0,.37.52.46.89.44a2.56,2.56,0,0,0,1.68-.53L290.2,25a1,1,0,0,0-.24.7.76.76,0,0,0,.88.52,2.34,2.34,0,0,0,1-.56,12.3,12.3,0,0,1,1-.77c.2.39.19.86.47,1.2a2.31,2.31,0,0,0,.5-1.14,2.54,2.54,0,0,0-.06-1,4.34,4.34,0,0,0-2.88-3.08,6.62,6.62,0,0,0-1.16-.23A4.86,4.86,0,0,1,291.69,22.21Z" transform="translate(-18.99 -17.42)"/><path class="cls-1" d="M281.08,25.24c.2.21-.27.67-.06,1s.75.3,1.08.23a6.92,6.92,0,0,0,2.74-1.22,10.72,10.72,0,0,1-2.63.94.48.48,0,0,1-.39,0,.41.41,0,0,1-.16-.29,2.65,2.65,0,0,1,0-1.05l-2.93-.13a1,1,0,0,0-.58.53.28.28,0,0,0,0,.25c.05.1.19.11.31.11C278.9,25.57,280.86,25,281.08,25.24Z" transform="translate(-18.99 -17.42)"/><path class="cls-1" d="M285.9,28a3.42,3.42,0,0,1-1.7.76.84.84,0,0,1-.54-.07.59.59,0,0,1-.14-.79.87.87,0,0,1,.19-.25,6.81,6.81,0,0,1-1.62.86c-.52.2-1.23.27-1.53-.19a1,1,0,0,1,.07-1A2.23,2.23,0,0,0,280,29a1,1,0,0,0,1.2,1.12,2.82,2.82,0,0,0,1.91-.79,1.36,1.36,0,0,0,1.34.47,3.2,3.2,0,0,0,.55-.17c.09,0,.17-.1.26-.13a1.53,1.53,0,0,0,.26-.08,3.12,3.12,0,0,0-.9.76.93.93,0,0,0-.31.56.78.78,0,0,0,.43.64A1.81,1.81,0,0,0,287,31a3.66,3.66,0,0,1-1.36,0c-.39-.06-.88-.22-.72-.7a1.17,1.17,0,0,1,.24-.38,3.24,3.24,0,0,1,1.43-.86,3.16,3.16,0,0,1-1,0c-.15,0-.34-.1-.35-.26a.33.33,0,0,1,.09-.22A3.73,3.73,0,0,1,285.9,28Z" transform="translate(-18.99 -17.42)"/><path class="cls-1" d="M276.94,21.63A17.16,17.16,0,0,0,280,21a.8.8,0,0,0,.4-.26,3.9,3.9,0,0,1-.59,0,1.22,1.22,0,0,1-.79-.39.51.51,0,0,1,.16-.75A4.27,4.27,0,0,0,276.68,21c-.14.16-.26.41-.1.56A.48.48,0,0,0,276.94,21.63Z" transform="translate(-18.99 -17.42)"/><path class="cls-1" d="M326.52,24A.82.82,0,0,0,327,24a.62.62,0,0,0,.27-.68,1.72,1.72,0,0,0-.37-.69,6.74,6.74,0,0,0,2.18,1.24c.5.17,1.17.22,1.43-.23a.92.92,0,0,0-.1-.94,1.33,1.33,0,0,0-.14-.19,4.16,4.16,0,0,0,3.08,1.4c.42,0,.92-.13,1.06-.52a.79.79,0,0,0-.31-.83,2.17,2.17,0,0,0-.79-.35c.27.12.23.61-.06.76a1.24,1.24,0,0,1-1-.11,22.22,22.22,0,0,1-3.63-1.94h0a2.63,2.63,0,0,1,1,1.15c-1.13.65-2.79-1-3.4-.31-.23.26,0,.81-.31,1.09-.44.43-1.23.17-1.74,0A3.75,3.75,0,0,0,326.52,24Z" transform="translate(-18.99 -17.42)"/><path class="cls-1" d="M322.11,22.54c-.36.25-.86.06-1.26-.13l-1.76-.86a2.68,2.68,0,0,1,1,.8.83.83,0,0,1,.13.34,3.92,3.92,0,0,0,2.58.93.49.49,0,0,0,.33-.09.44.44,0,0,0,.16-.27,1.81,1.81,0,0,0-.52-1.63,5.61,5.61,0,0,0-1.49-1,2.54,2.54,0,0,1,1,.77A.84.84,0,0,1,322.11,22.54Z" transform="translate(-18.99 -17.42)"/><path class="cls-1" d="M330.88,24.75a5.33,5.33,0,0,0-.91-.56,2.08,2.08,0,0,1,.66.86,8.78,8.78,0,0,1-1.69-.15c-.29-.06-1-.32-1.06.08a1,1,0,0,0,.05.38,2,2,0,0,1-.06.65.48.48,0,0,1-.15.3.55.55,0,0,1-.4,0,10.7,10.7,0,0,1-2.63-.93,6.92,6.92,0,0,0,2.74,1.22c.33.06.87.1,1.08-.23s-.25-.79-.06-1,2.18.34,2.65.34c.12,0,.26,0,.31-.11a.26.26,0,0,0,0-.24A1.86,1.86,0,0,0,330.88,24.75Z" transform="translate(-18.99 -17.42)"/><path class="cls-1" d="M323.64,36.46a.67.67,0,0,0,.51-.6,1.56,1.56,0,0,0-.19-.81A4.71,4.71,0,0,0,322,33a5.17,5.17,0,0,1,1.35,1.66,1.44,1.44,0,0,1,.21.73.63.63,0,0,1-.43.57c-.42.1-.73-.34-1.11-.53a4.16,4.16,0,0,1,1.37,1.78c.2.59,0,.85-.15,1.39a1.22,1.22,0,0,0-.34-.3,3.49,3.49,0,0,1-.77-.46l-.27,0c.23.07.31.34.38.57a4.32,4.32,0,0,0,.57,1.16.49.49,0,0,0,.34.26c.29,0,.43-.34.39-.62a1.45,1.45,0,0,0-.3-.64c.5.09.74-.11.82-.43h0A2.63,2.63,0,0,0,323.64,36.46Z" transform="translate(-18.99 -17.42)"/><polygon class="cls-1" points="305.04 20.73 305.04 20.72 305.03 20.72 305.04 20.73"/><path class="cls-1" d="M323.89,29.19a2.87,2.87,0,0,1-1,0c.29.12.58.24.86.38a1.75,1.75,0,0,1,.67.46.69.69,0,0,1,.1.76,1,1,0,0,1-.68.35,4.14,4.14,0,0,1-1.36,0,1.81,1.81,0,0,0,2.3.38.81.81,0,0,0,.43-.65,1,1,0,0,0-.31-.56,7.6,7.6,0,0,0-1.19-1,3.8,3.8,0,0,0,1.36.62,1.32,1.32,0,0,0,1.34-.47,2.89,2.89,0,0,0,1.91.8,1.2,1.2,0,0,0,1-.35,1.23,1.23,0,0,0,.21-.77,2.25,2.25,0,0,0-.65-1.71,1,1,0,0,1,.07,1.05c-.3.46-1,.38-1.52.19a7.39,7.39,0,0,1-1.62-.86A1.12,1.12,0,0,1,326,28a.61.61,0,0,1-.15.8.83.83,0,0,1-.54.06,3.45,3.45,0,0,1-1.7-.75,4.37,4.37,0,0,1,.53.6.35.35,0,0,1,.08.22C324.23,29.09,324.05,29.17,323.89,29.19Z" transform="translate(-18.99 -17.42)"/><path class="cls-1" d="M325.83,27.77a2.79,2.79,0,0,0-.47-.36A5.32,5.32,0,0,0,325.83,27.77Z" transform="translate(-18.99 -17.42)"/><path class="cls-1" d="M333.74,22.08a.16.16,0,0,1-.21.11,1.88,1.88,0,0,0,2.42.44A7,7,0,0,1,339.77,25a.9.9,0,0,1,.27.58c0,.21-.24.42-.44.33a10.7,10.7,0,0,1,3.69,2.42c.48.48.68,1,.19,1.56a2.68,2.68,0,0,0,1.28.47.88.88,0,0,0,.62-.08c.36-.24.19-.8-.05-1.17a8.05,8.05,0,0,0-4.27-3.24.53.53,0,0,0,.33-.64,1.38,1.38,0,0,0-.44-.65c-2.42-2.27-6.49-2.79-9.05-4.06a12.1,12.1,0,0,1,1.68,1.29A.4.4,0,0,1,333.74,22.08Z" transform="translate(-18.99 -17.42)"/><path class="cls-1" d="M296.87,30.46a.76.76,0,0,1-.75-.75.75.75,0,0,1,.75-.74.74.74,0,0,1,.74.74A.75.75,0,0,1,296.87,30.46Zm0-1.07a.32.32,0,0,0-.33.32.33.33,0,0,0,.33.33.32.32,0,0,0,.32-.33A.32.32,0,0,0,296.87,29.39Z" transform="translate(-18.99 -17.42)"/><path class="cls-1" d="M32.44,282.7A39.34,39.34,0,0,1,19,275.75l4.82-10.55a39.58,39.58,0,0,0,12.05,6.4,45.27,45.27,0,0,0,13.74,2q8.19,0,12.62-2.86a9,9,0,0,0,4.43-8,7.48,7.48,0,0,0-4.09-6.84q-4.1-2.35-13.63-4.49a80.62,80.62,0,0,1-16-4.93,22.67,22.67,0,0,1-9.3-7.18,18.54,18.54,0,0,1-3.15-11.1,21.25,21.25,0,0,1,3.82-12.45A25.1,25.1,0,0,1,35,207.17a39.16,39.16,0,0,1,16-3.09,49.13,49.13,0,0,1,15.81,2.53,34.48,34.48,0,0,1,12.34,6.89l-4.82,10.55a36.54,36.54,0,0,0-23.33-8.42q-7.62,0-12.06,3.09a9.88,9.88,0,0,0-4.42,8.58,7.85,7.85,0,0,0,3.92,7.06q3.93,2.47,13.35,4.6a90.37,90.37,0,0,1,16.2,5,24.07,24.07,0,0,1,9.53,7,17,17,0,0,1,3.31,10.77,20.91,20.91,0,0,1-3.76,12.39,23.69,23.69,0,0,1-10.87,8.19,45,45,0,0,1-16.77,2.86A57.47,57.47,0,0,1,32.44,282.7Z" transform="translate(-18.99 -17.42)"/><path class="cls-1" d="M143.36,229.32v54.84H129.67v-8.41a17.77,17.77,0,0,1-6.95,6.89,20.07,20.07,0,0,1-9.87,2.41q-20.19,0-20.18-22.65V229.32h14v33.19q0,5.83,2.36,8.64t7.4,2.8a12.09,12.09,0,0,0,9.37-3.87q3.52-3.87,3.53-10.26v-30.5Z" transform="translate(-18.99 -17.42)"/><path class="cls-1" d="M202.07,231.56a23.83,23.83,0,0,1,8.63,10.15,35,35,0,0,1,3.09,15.08,33.9,33.9,0,0,1-3.09,14.92,23.44,23.44,0,0,1-8.58,9.87,23.17,23.17,0,0,1-12.67,3.47A21.74,21.74,0,0,1,179,282.59a17.39,17.39,0,0,1-7.07-6.84v28.59h-14v-75h13.79v8.3a17.23,17.23,0,0,1,7.12-7.13,21.91,21.91,0,0,1,10.6-2.52A22.78,22.78,0,0,1,202.07,231.56Zm-6,38.07q3.69-4.53,3.7-12.84,0-8.52-3.7-13.23a12.39,12.39,0,0,0-10.32-4.71q-6.74,0-10.38,4.6t-3.64,13.12q0,8.42,3.64,13t10.38,4.6Q192.37,274.18,196.07,269.63Z" transform="translate(-18.99 -17.42)"/><path class="cls-1" d="M273.45,259.26H236.1q.68,7.64,4.6,11.33c2.62,2.46,6.35,3.7,11.22,3.7a26.48,26.48,0,0,0,16.59-5.83l4,9.64a29.29,29.29,0,0,1-9.59,5,36.85,36.85,0,0,1-11.61,1.9q-13.46,0-21.25-7.62t-7.79-20.86a32.06,32.06,0,0,1,3.36-14.92,24.5,24.5,0,0,1,9.48-10.09A26.85,26.85,0,0,1,249,228q11.33,0,17.89,7.29t6.56,20.08Zm-33.14-17.83q-3.42,3.58-4.21,10.32h25.35q-.22-6.84-3.37-10.38t-8.74-3.53A11.91,11.91,0,0,0,240.31,241.43Z" transform="translate(-18.99 -17.42)"/><path class="cls-1" d="M321,239.63l-8.19.79q-13.9,1.46-13.91,14.13v29.61h-14V229.32h13.34V239q4.26-9.87,17.61-10.76l4.26-.34Z" transform="translate(-18.99 -17.42)"/><path class="cls-1" d="M334.06,283.26a30.46,30.46,0,0,1-10.37-5.16l3.92-9.76a33.13,33.13,0,0,0,20.08,6.4c3.21,0,5.66-.53,7.34-1.57a5,5,0,0,0,2.53-4.49,4.54,4.54,0,0,0-1.74-3.81,17.86,17.86,0,0,0-6.22-2.47l-9-2q-7.62-1.68-11.32-5.49a13.57,13.57,0,0,1-3.7-9.87,14.58,14.58,0,0,1,2.86-8.92,18.37,18.37,0,0,1,8-6A30.5,30.5,0,0,1,348.25,228a35.64,35.64,0,0,1,11.27,1.8,31.09,31.09,0,0,1,9.59,5l-3.93,9.53q-8.52-6.17-17-6.16a13.08,13.08,0,0,0-7.18,1.68,5.32,5.32,0,0,0-2.58,4.71,4.73,4.73,0,0,0,1.63,3.7,11.49,11.49,0,0,0,5.21,2.24l9.31,2.13q8.19,1.8,12,5.67a13.84,13.84,0,0,1,3.81,10.15,14.19,14.19,0,0,1-6.17,12.11q-6.17,4.49-16.71,4.48A47.32,47.32,0,0,1,334.06,283.26Z" transform="translate(-18.99 -17.42)"/><path class="cls-1" d="M422.38,233.58q5.61,5.61,5.61,17.27v33.31H414.64v-8.41a14.67,14.67,0,0,1-6,6.84,18,18,0,0,1-9.48,2.46,22,22,0,0,1-10-2.24,17.69,17.69,0,0,1-7.06-6.17,15.55,15.55,0,0,1-2.58-8.74q0-6.06,3.08-9.54c2.06-2.31,5.4-4,10-5s11-1.57,19.18-1.57h2.8v-2.58q0-5.61-2.41-8.08t-8-2.46a30.13,30.13,0,0,0-9.14,1.51,46.25,46.25,0,0,0-9.36,4.2l-3.93-9.64A48.14,48.14,0,0,1,405.22,228Q416.77,228,422.38,233.58ZM411.11,271.2a13.59,13.59,0,0,0,3.53-9.7v-2.35h-2a77.13,77.13,0,0,0-11.66.67c-2.77.45-4.75,1.23-5.95,2.36a6,6,0,0,0-1.79,4.59,7.66,7.66,0,0,0,2.47,5.89A8.8,8.8,0,0,0,402,275,12,12,0,0,0,411.11,271.2Z" transform="translate(-18.99 -17.42)"/><path class="cls-1" d="M442.23,284.16V205.09h14v79.07Z" transform="translate(-18.99 -17.42)"/><path class="cls-1" d="M521.07,229.32v54.84H507.38v-8.41a17.77,17.77,0,0,1-6.95,6.89,20.07,20.07,0,0,1-9.87,2.41q-20.19,0-20.18-22.65V229.32h14v33.19q0,5.83,2.36,8.64t7.4,2.8a12.09,12.09,0,0,0,9.37-3.87q3.53-3.87,3.53-10.26v-30.5Z" transform="translate(-18.99 -17.42)"/><path class="cls-1" d="M588.58,205.09v79.07H574.67V275.3a17.58,17.58,0,0,1-7.12,7.18,21.57,21.57,0,0,1-10.6,2.57,22.72,22.72,0,0,1-12.61-3.58,23.91,23.91,0,0,1-8.64-10.15,35,35,0,0,1-3.08-15.09,33.88,33.88,0,0,1,3.08-14.91,23.44,23.44,0,0,1,8.58-9.87A23.17,23.17,0,0,1,557,228a21.92,21.92,0,0,1,10.55,2.47,17.07,17.07,0,0,1,7.06,6.95v-32.3ZM571,269.58q3.65-4.6,3.64-13.12T571,243.39q-3.64-4.54-10.26-4.54t-10.43,4.49q-3.71,4.49-3.7,12.89t3.7,13.24a12.36,12.36,0,0,0,10.32,4.71Q567.38,274.18,571,269.58Z" transform="translate(-18.99 -17.42)"/><rect class="cls-2" x="257.57" y="291.44" width="13.35" height="79.52" transform="translate(-85.94 578.03) rotate(-90)"/><rect class="cls-3" x="317.69" y="310.85" width="13.35" height="40.71" transform="translate(-25.83 638.14) rotate(-90)"/><rect class="cls-4" x="358.4" y="310.85" width="13.35" height="40.71" transform="translate(14.89 678.86) rotate(-90)"/></svg>